<svg width="26" height="26" viewBox="0 0 26 26" fill="none" xmlns="http://www.w3.org/2000/svg">
<g clip-path="url(#clip0_4_345)">
<path d="M3.25 26C2.38805 26 1.5614 25.6576 0.951903 25.0481C0.34241 24.4386 0 23.612 0 22.75V3.25C0 2.38805 0.34241 1.5614 0.951903 0.951903C1.5614 0.34241 2.38805 0 3.25 0L22.75 0C23.612 0 24.4386 0.34241 25.0481 0.951903C25.6576 1.5614 26 2.38805 26 3.25V22.75C26 23.612 25.6576 24.4386 25.0481 25.0481C24.4386 25.6576 23.612 26 22.75 26H3.25ZM13.8125 18.6875V9.27387L17.2997 12.7628C17.3753 12.8383 17.465 12.8982 17.5637 12.9391C17.6624 12.98 17.7682 13.001 17.875 13.001C17.9818 13.001 18.0876 12.98 18.1863 12.9391C18.285 12.8982 18.3747 12.8383 18.4503 12.7628C18.5258 12.6872 18.5857 12.5975 18.6266 12.4988C18.6675 12.4001 18.6885 12.2943 18.6885 12.1875C18.6885 12.0807 18.6675 11.9749 18.6266 11.8762C18.5857 11.7775 18.5258 11.6878 18.4503 11.6122L13.5753 6.73725C13.4998 6.66158 13.4101 6.60155 13.3114 6.56059C13.2127 6.51963 13.1069 6.49855 13 6.49855C12.8931 6.49855 12.7873 6.51963 12.6886 6.56059C12.5899 6.60155 12.5002 6.66158 12.4247 6.73725L7.54975 11.6122C7.39718 11.7648 7.31147 11.9717 7.31147 12.1875C7.31147 12.4033 7.39718 12.6102 7.54975 12.7628C7.70232 12.9153 7.90924 13.001 8.125 13.001C8.34076 13.001 8.54768 12.9153 8.70025 12.7628L12.1875 9.27387V18.6875C12.1875 18.903 12.2731 19.1097 12.4255 19.262C12.5778 19.4144 12.7845 19.5 13 19.5C13.2155 19.5 13.4222 19.4144 13.5745 19.262C13.7269 19.1097 13.8125 18.903 13.8125 18.6875Z" fill="url(#paint0_linear_4_345)"/>
</g>
<defs>
<linearGradient id="paint0_linear_4_345" x1="13" y1="0" x2="13" y2="26" gradientUnits="userSpaceOnUse">
<stop stop-color="#FEECCF"/>
<stop offset="0.740717" stop-color="#E7A74E"/>
</linearGradient>
<clipPath id="clip0_4_345">
<rect width="26" height="26" rx="7.09091" fill="white"/>
</clipPath>
</defs>
</svg>
