<svg width="108" height="108" viewBox="0 0 108 108" fill="none" xmlns="http://www.w3.org/2000/svg">
<circle cx="54" cy="54" r="53.7273" fill="#1B091E" stroke="url(#paint0_linear_4_3128)" stroke-width="0.545457"/>
<circle cx="54" cy="53.7272" r="44.3455" fill="#2B0F2F" stroke="url(#paint1_linear_4_3128)" stroke-width="0.218183"/>
<path d="M55.6027 53.799C55.6027 54.4449 55.0786 54.9685 54.4321 54.9685C53.7856 54.9685 53.2615 54.4449 53.2615 53.799C53.2615 53.1531 53.7856 52.6295 54.4321 52.6295C55.0786 52.6295 55.6027 53.1531 55.6027 53.799Z" fill="#512E84"/>
<path d="M51.5935 51.2312C52.1407 51.5098 52.3583 52.1788 52.0795 52.7255C51.8007 53.2722 51.131 53.4896 50.5838 53.2111C50.0366 52.9325 49.819 52.2635 50.0978 51.7167C50.3767 51.17 51.0463 50.9526 51.5935 51.2312Z" fill="#512E84"/>
<path d="M50.6756 54.9615C51.1907 54.6273 51.8794 54.7736 52.2139 55.2882C52.5484 55.8028 52.402 56.4909 51.8869 56.8251C51.3719 57.1593 50.6832 57.013 50.3487 56.4984C50.0142 55.9838 50.1606 55.2957 50.6756 54.9615Z" fill="#512E84"/>
<path d="M53.3805 57.705C53.3483 57.0922 53.8195 56.5694 54.4328 56.5373C55.0461 56.5052 55.5694 56.9759 55.6015 57.5887C55.6336 58.2014 55.1625 58.7242 54.5492 58.7563C53.9359 58.7884 53.4126 58.3177 53.3805 57.705Z" fill="#512E84"/>
<path d="M57.0833 56.6661C56.5361 56.3875 56.3185 55.7185 56.5974 55.1717C56.8762 54.625 57.5458 54.4076 58.093 54.6862C58.6403 54.9648 58.8578 55.6338 58.579 56.1805C58.3002 56.7273 57.6306 56.9446 57.0833 56.6661Z" fill="#512E84"/>
<path d="M58.0664 52.9323C57.5513 53.2665 56.8626 53.1203 56.5281 52.6057C56.1936 52.091 56.34 51.403 56.8551 51.0688C57.3701 50.7346 58.0589 50.8808 58.3933 51.3954C58.7278 51.9101 58.5815 52.5981 58.0664 52.9323Z" fill="#512E84"/>
<path d="M55.3466 50.2375C55.3787 50.8502 54.9076 51.373 54.2943 51.4051C53.6809 51.4372 53.1577 50.9665 53.1255 50.3538C53.0934 49.741 53.5645 49.2182 54.1779 49.1861C54.7912 49.154 55.3144 49.6247 55.3466 50.2375Z" fill="#512E84"/>
<path d="M51.0118 47.4833C51.3537 47.9536 51.2494 48.6118 50.7787 48.9535C50.308 49.2952 49.6491 49.1909 49.3072 48.7207C48.9652 48.2504 49.0695 47.5921 49.5402 47.2505C50.0109 46.9088 50.6698 47.013 51.0118 47.4833Z" fill="#512E84"/>
<path d="M48.2188 50.0099C48.7503 50.2463 48.9894 50.8685 48.7527 51.3995C48.516 51.9306 47.8933 52.1694 47.3618 51.933C46.8303 51.6965 46.5912 51.0744 46.8279 50.5433C47.0645 50.0123 47.6872 49.7734 48.2188 50.0099Z" fill="#512E84"/>
<path d="M47.0906 53.6144C47.6693 53.5536 48.1877 53.973 48.2485 54.5512C48.3093 55.1293 47.8895 55.6472 47.3109 55.708C46.7322 55.7687 46.2139 55.3493 46.153 54.7712C46.0922 54.1931 46.512 53.6752 47.0906 53.6144Z" fill="#512E84"/>
<path d="M47.8579 57.2731C48.3286 56.9314 48.9875 57.0356 49.3295 57.5059C49.6715 57.9762 49.5671 58.6344 49.0964 58.9761C48.6257 59.3178 47.9669 59.2136 47.6249 58.7433C47.2829 58.273 47.3872 57.6147 47.8579 57.2731Z" fill="#512E84"/>
<path d="M50.3868 60.0635C50.6234 59.5325 51.2462 59.2937 51.7777 59.5301C52.3092 59.7665 52.5483 60.3887 52.3116 60.9198C52.075 61.4508 51.4522 61.6896 50.9207 61.4532C50.3892 61.2168 50.1501 60.5946 50.3868 60.0635Z" fill="#512E84"/>
<path d="M53.9996 61.2381C53.9387 60.66 54.3585 60.1421 54.9372 60.0813C55.5158 60.0205 56.0342 60.4399 56.095 61.0181C56.1558 61.5962 55.7361 62.1141 55.1574 62.1749C54.5788 62.2356 54.0604 61.8162 53.9996 61.2381Z" fill="#512E84"/>
<path d="M57.6565 60.424C57.3145 59.9538 57.4189 59.2955 57.8896 58.9538C58.3603 58.6122 59.0191 58.7164 59.3611 59.1867C59.7031 59.657 59.5988 60.3152 59.1281 60.6569C58.6574 60.9986 57.9985 60.8943 57.6565 60.424Z" fill="#512E84"/>
<path d="M60.4495 57.8975C59.918 57.661 59.6789 57.0389 59.9156 56.5078C60.1522 55.9768 60.775 55.7379 61.3065 55.9744C61.838 56.2108 62.0771 56.833 61.8404 57.364C61.6038 57.8951 60.981 58.1339 60.4495 57.8975Z" fill="#512E84"/>
<path d="M61.6301 54.3354C61.0515 54.3962 60.5331 53.9768 60.4723 53.3986C60.4115 52.8205 60.8312 52.3026 61.4099 52.2418C61.9885 52.1811 62.5069 52.6005 62.5677 53.1786C62.6286 53.7567 62.2088 54.2746 61.6301 54.3354Z" fill="#512E84"/>
<path d="M60.8104 50.6343C60.3396 50.976 59.6808 50.8717 59.3388 50.4014C58.9968 49.9311 59.1012 49.2729 59.5719 48.9312C60.0426 48.5895 60.7014 48.6938 61.0434 49.1641C61.3854 49.6344 61.2811 50.2926 60.8104 50.6343Z" fill="#512E84"/>
<path d="M58.2815 47.8438C58.0449 48.3749 57.4221 48.6137 56.8906 48.3773C56.3591 48.1408 56.12 47.5186 56.3567 46.9876C56.5933 46.4565 57.2161 46.2177 57.7476 46.4541C58.2791 46.6906 58.5182 47.3128 58.2815 47.8438Z" fill="#512E84"/>
<path d="M54.7212 46.7117C54.782 47.2898 54.3623 47.8078 53.7836 47.8685C53.205 47.9293 52.6866 47.5099 52.6258 46.9318C52.5649 46.3536 52.9847 45.8357 53.5634 45.7749C54.142 45.7142 54.6604 46.1336 54.7212 46.7117Z" fill="#512E84"/>
<path d="M50.0738 44.0966C50.3402 44.5767 50.1666 45.1818 49.686 45.4479C49.2054 45.7141 48.5998 45.5406 48.3334 45.0604C48.067 44.5802 48.2406 43.9752 48.7212 43.709C49.2018 43.4429 49.8074 43.6164 50.0738 44.0966Z" fill="#512E84"/>
<path d="M46.9436 46.1411C47.3584 46.5013 47.4023 47.1292 47.0418 47.5435C46.6813 47.9579 46.0528 48.0018 45.6381 47.6416C45.2234 47.2814 45.1795 46.6535 45.54 46.2392C45.9005 45.8248 46.5289 45.7809 46.9436 46.1411Z" fill="#512E84"/>
<path d="M44.7166 49.1375C45.2296 49.3343 45.4859 49.9093 45.2889 50.4218C45.092 50.9344 44.5165 51.1904 44.0035 50.9936C43.4905 50.7969 43.2342 50.2219 43.4312 49.7093C43.6281 49.1968 44.2036 48.9408 44.7166 49.1375Z" fill="#512E84"/>
<path d="M43.6614 52.7244C44.2108 52.734 44.6484 53.1868 44.6388 53.7357C44.6292 54.2846 44.1761 54.7219 43.6266 54.7123C43.0772 54.7027 42.6396 54.2499 42.6492 53.701C42.6588 53.1521 43.1119 52.7148 43.6614 52.7244Z" fill="#512E84"/>
<path d="M43.9016 56.4468C44.4212 56.268 44.9874 56.544 45.1663 57.0631C45.3452 57.5822 45.069 58.1479 44.5494 58.3266C44.0299 58.5054 43.4637 58.2294 43.2848 57.7103C43.1058 57.1912 43.382 56.6255 43.9016 56.4468Z" fill="#512E84"/>
<path d="M45.3439 59.8658C45.771 59.5203 46.3975 59.5861 46.7433 60.0128C47.0891 60.4394 47.0233 61.0654 46.5962 61.4109C46.1692 61.7564 45.5427 61.6906 45.1968 61.2639C44.851 60.8373 44.9169 60.2113 45.3439 59.8658Z" fill="#512E84"/>
<path d="M47.9047 62.5778C48.1878 62.1072 48.799 61.9549 49.2701 62.2377C49.7411 62.5204 49.8935 63.1311 49.6105 63.6017C49.3274 64.0723 48.7162 64.2246 48.2452 63.9418C47.7741 63.6591 47.6217 63.0484 47.9047 62.5778Z" fill="#512E84"/>
<path d="M51.2528 64.2591C51.3576 63.7202 51.8799 63.3682 52.4193 63.473C52.9587 63.5777 53.311 64.0995 53.2062 64.6385C53.1013 65.1774 52.579 65.5293 52.0396 65.4246C51.5002 65.3198 51.1479 64.798 51.2528 64.2591Z" fill="#512E84"/>
<path d="M54.9842 64.707C54.8983 64.1647 55.2686 63.6555 55.8113 63.5696C56.3541 63.4838 56.8637 63.8537 56.9497 64.396C57.0357 64.9382 56.6654 65.4474 56.1226 65.5333C55.5799 65.6192 55.0702 65.2492 54.9842 64.707Z" fill="#512E84"/>
<path d="M58.598 63.8304C58.3315 63.3502 58.5052 62.7452 58.9858 62.479C59.4664 62.2128 60.072 62.3863 60.3384 62.8665C60.6048 63.3467 60.4312 63.9517 59.9506 64.2179C59.4699 64.484 58.8644 64.3105 58.598 63.8304Z" fill="#512E84"/>
<path d="M61.7092 61.772C61.2945 61.4119 61.2505 60.784 61.611 60.3696C61.9715 59.9553 62.6 59.9114 63.0147 60.2716C63.4294 60.6318 63.4734 61.2596 63.1129 61.674C62.7524 62.0883 62.1239 62.1322 61.7092 61.772Z" fill="#512E84"/>
<path d="M63.9426 58.7802C63.4296 58.5835 63.1734 58.0085 63.3703 57.4959C63.5672 56.9834 64.1427 56.7274 64.6557 56.9241C65.1687 57.1209 65.425 57.6959 65.2281 58.2084C65.0311 58.721 64.4556 58.977 63.9426 58.7802Z" fill="#512E84"/>
<path d="M65.0288 55.2159C64.4794 55.2063 64.0418 54.7535 64.0514 54.2046C64.061 53.6557 64.5141 53.2184 65.0636 53.228C65.613 53.2376 66.0506 53.6904 66.041 54.2393C66.0314 54.7882 65.5783 55.2255 65.0288 55.2159Z" fill="#512E84"/>
<path d="M64.811 51.49C64.2914 51.6687 63.7252 51.3928 63.5463 50.8737C63.3674 50.3546 63.6435 49.7889 64.1631 49.6101C64.6827 49.4314 65.2489 49.7073 65.4278 50.2264C65.6067 50.7455 65.3305 51.3112 64.811 51.49Z" fill="#512E84"/>
<path d="M63.3153 48.052C62.8882 48.3975 62.2617 48.3317 61.9159 47.905C61.5701 47.4784 61.6359 46.8524 62.063 46.5069C62.49 46.1614 63.1166 46.2272 63.4624 46.6539C63.8082 47.0805 63.7423 47.7065 63.3153 48.052Z" fill="#512E84"/>
<path d="M60.7481 45.3354C60.4651 45.806 59.8538 45.9582 59.3828 45.6755C58.9118 45.3927 58.7593 44.782 59.0424 44.3114C59.3254 43.8408 59.9366 43.6885 60.4077 43.9713C60.8787 44.2541 61.0311 44.8648 60.7481 45.3354Z" fill="#512E84"/>
<path d="M57.419 43.6678C57.3142 44.2068 56.7919 44.5587 56.2525 44.454C55.7131 44.3492 55.3608 43.8274 55.4656 43.2885C55.5705 42.7496 56.0928 42.3976 56.6322 42.5023C57.1716 42.6071 57.5239 43.1289 57.419 43.6678Z" fill="#512E84"/>
<path d="M53.7296 43.2505C53.8156 43.7927 53.4453 44.3019 52.9025 44.3878C52.3598 44.4737 51.8501 44.1037 51.7642 43.5615C51.6782 43.0192 52.0485 42.51 52.5912 42.4241C53.134 42.3383 53.6437 42.7082 53.7296 43.2505Z" fill="#512E84"/>
<path d="M48.776 40.8623C49.0108 41.3227 48.8276 41.8861 48.3667 42.1207C47.9059 42.3553 47.342 42.1722 47.1072 41.7118C46.8724 41.2514 47.0556 40.688 47.5165 40.4534C47.9773 40.2189 48.5412 40.4019 48.776 40.8623Z" fill="#512E84"/>
<path d="M45.5586 42.74C45.9046 43.124 45.8736 43.7155 45.4893 44.0613C45.1049 44.407 44.5128 44.376 44.1667 43.992C43.8207 43.608 43.8517 43.0165 44.2361 42.6707C44.6204 42.325 45.2125 42.356 45.5586 42.74Z" fill="#512E84"/>
<path d="M42.9459 45.3872C43.3797 45.6686 43.5029 46.2481 43.2212 46.6814C42.9396 47.1148 42.3596 47.238 41.9259 46.9565C41.4921 46.6751 41.3688 46.0957 41.6505 45.6623C41.9322 45.229 42.5122 45.1058 42.9459 45.3872Z" fill="#512E84"/>
<path d="M41.116 48.6236C41.6079 48.7833 41.877 49.3111 41.7172 49.8026C41.5574 50.294 41.0291 50.5629 40.5372 50.4033C40.0454 50.2436 39.7762 49.7158 39.936 49.2243C40.0958 48.7329 40.6241 48.464 41.116 48.6236Z" fill="#512E84"/>
<path d="M40.1947 52.2341C40.7112 52.2612 41.1079 52.7014 41.0808 53.2174C41.0538 53.7334 40.6131 54.1298 40.0967 54.1028C39.5802 54.0757 39.1835 53.6355 39.2105 53.1195C39.2376 52.6035 39.6782 52.2071 40.1947 52.2341Z" fill="#512E84"/>
<path d="M40.2426 55.9623C40.7485 55.8549 41.2457 56.1775 41.3533 56.6829C41.4608 57.1884 41.1379 57.6852 40.632 57.7926C40.1261 57.9001 39.6288 57.5774 39.5213 57.072C39.4138 56.5666 39.7367 56.0697 40.2426 55.9623Z" fill="#512E84"/>
<path d="M41.2192 59.5342C41.68 59.2996 42.2439 59.4827 42.4787 59.9431C42.7135 60.4035 42.5303 60.9669 42.0695 61.2015C41.6087 61.436 41.0448 61.253 40.81 60.7926C40.5752 60.3322 40.7584 59.7688 41.2192 59.5342Z" fill="#512E84"/>
<path d="M43.0962 62.7312C43.4806 62.3854 44.0727 62.4164 44.4188 62.8004C44.7648 63.1844 44.7338 63.776 44.3494 64.1217C43.9651 64.4675 43.373 64.4365 43.0269 64.0525C42.6809 63.6685 42.7119 63.0769 43.0962 62.7312Z" fill="#512E84"/>
<path d="M45.7458 65.3354C46.0275 64.902 46.6074 64.7788 47.0412 65.0603C47.4749 65.3417 47.5982 65.9211 47.3165 66.3545C47.0348 66.7878 46.4549 66.911 46.0211 66.6296C45.5874 66.3482 45.4641 65.7687 45.7458 65.3354Z" fill="#512E84"/>
<path d="M48.9873 67.1693C49.1471 66.6779 49.6754 66.4089 50.1673 66.5686C50.6591 66.7283 50.9283 67.2561 50.7685 67.7475C50.6087 68.239 50.0804 68.5079 49.5885 68.3482C49.0966 68.1886 48.8275 67.6607 48.9873 67.1693Z" fill="#512E84"/>
<path d="M52.5998 68.108C52.6269 67.592 53.0675 67.1957 53.584 67.2227C54.1005 67.2497 54.4972 67.69 54.4701 68.206C54.4431 68.722 54.0024 69.1184 53.486 69.0913C52.9695 69.0643 52.5727 68.6241 52.5998 68.108Z" fill="#512E84"/>
<path d="M56.3372 68.0876C56.2297 67.5822 56.5526 67.0853 57.0585 66.9779C57.5644 66.8705 58.0617 67.1931 58.1692 67.6985C58.2767 68.204 57.9538 68.7008 57.4479 68.8082C56.942 68.9156 56.4448 68.593 56.3372 68.0876Z" fill="#512E84"/>
<path d="M59.9065 67.0844C59.6717 66.6241 59.8549 66.0607 60.3157 65.8261C60.7765 65.5915 61.3404 65.7745 61.5752 66.2349C61.81 66.6953 61.6268 67.2587 61.166 67.4933C60.7052 67.7279 60.1413 67.5448 59.9065 67.0844Z" fill="#512E84"/>
<path d="M63.1027 65.1919C62.7566 64.8079 62.7876 64.2163 63.172 63.8706C63.5563 63.5248 64.1484 63.5558 64.4945 63.9398C64.8406 64.3238 64.8095 64.9154 64.4252 65.2611C64.0409 65.6069 63.4487 65.5759 63.1027 65.1919Z" fill="#512E84"/>
<path d="M65.708 62.5389C65.2742 62.2574 65.1509 61.678 65.4326 61.2446C65.7143 60.8113 66.2943 60.6881 66.728 60.9695C67.1618 61.251 67.285 61.8304 67.0034 62.2638C66.7217 62.6971 66.1417 62.8203 65.708 62.5389Z" fill="#512E84"/>
<path d="M67.5448 59.3062C67.053 59.1465 66.7838 58.6187 66.9436 58.1272C67.1034 57.6358 67.6317 57.3669 68.1236 57.5265C68.6155 57.6862 68.8846 58.214 68.7248 58.7055C68.565 59.1969 68.0367 59.4658 67.5448 59.3062Z" fill="#512E84"/>
<path d="M68.4881 55.7141C67.9716 55.6871 67.5749 55.2468 67.6019 54.7308C67.629 54.2148 68.0696 53.8184 68.5861 53.8455C69.1026 53.8725 69.4993 54.3127 69.4723 54.8287C69.4452 55.3447 69.0046 55.7411 68.4881 55.7141Z" fill="#512E84"/>
<path d="M68.4734 52.0075C67.9675 52.1149 67.4703 51.7923 67.3627 51.2868C67.2552 50.7814 67.5781 50.2846 68.084 50.1772C68.5899 50.0697 69.0872 50.3924 69.1947 50.8978C69.3022 51.4032 68.9793 51.9 68.4734 52.0075Z" fill="#512E84"/>
<path d="M67.4636 48.414C67.0027 48.6486 66.4388 48.4655 66.204 48.0051C65.9692 47.5447 66.1525 46.9813 66.6133 46.7468C67.0741 46.5122 67.638 46.6952 67.8728 47.1556C68.1076 47.616 67.9244 48.1794 67.4636 48.414Z" fill="#512E84"/>
<path d="M65.5656 45.2035C65.1813 45.5492 64.5892 45.5182 64.2431 45.1342C63.897 44.7502 63.9281 44.1587 64.3124 43.8129C64.6968 43.4672 65.2889 43.4982 65.6349 43.8822C65.981 44.2661 65.95 44.8577 65.5656 45.2035Z" fill="#512E84"/>
<path d="M62.9089 42.5947C62.6273 43.028 62.0473 43.1512 61.6135 42.8698C61.1798 42.5883 61.0565 42.0089 61.3382 41.5755C61.6199 41.1422 62.1998 41.019 62.6336 41.3004C63.0673 41.5819 63.1906 42.1613 62.9089 42.5947Z" fill="#512E84"/>
<path d="M59.6746 40.7653C59.5148 41.2568 58.9865 41.5257 58.4946 41.366C58.0027 41.2063 57.7335 40.6785 57.8934 40.1871C58.0532 39.6957 58.5815 39.4267 59.0733 39.5864C59.5652 39.7461 59.8344 40.2739 59.6746 40.7653Z" fill="#512E84"/>
<path d="M56.0829 39.8402C56.0559 40.3562 55.6152 40.7526 55.0988 40.7255C54.5823 40.6985 54.1856 40.2582 54.2126 39.7422C54.2397 39.2262 54.6803 38.8298 55.1968 38.8569C55.7133 38.8839 56.11 39.3242 56.0829 39.8402Z" fill="#512E84"/>
<path d="M52.3788 39.8822C52.4863 40.3876 52.1634 40.8845 51.6575 40.9919C51.1516 41.0993 50.6544 40.7767 50.5468 40.2713C50.4393 39.7658 50.7622 39.269 51.2681 39.1616C51.774 39.0541 52.2713 39.3768 52.3788 39.8822Z" fill="#512E84"/>
<path d="M47.13 37.7708C47.3501 38.2024 47.1783 38.7306 46.7463 38.9505C46.3143 39.1704 45.7856 38.9988 45.5655 38.5672C45.3454 38.1356 45.5171 37.6074 45.9492 37.3874C46.3812 37.1675 46.9098 37.3391 47.13 37.7708Z" fill="#512E84"/>
<path d="M43.904 39.6171C44.2092 39.9935 44.1511 40.5459 43.7743 40.8507C43.3974 41.1556 42.8446 41.0975 42.5395 40.721C42.2344 40.3446 42.2925 39.7923 42.6693 39.4874C43.0461 39.1825 43.5989 39.2406 43.904 39.6171Z" fill="#512E84"/>
<path d="M41.1382 42.0934C41.515 42.3983 41.5731 42.9506 41.268 43.3271C40.9629 43.7035 40.41 43.7616 40.0332 43.4567C39.6564 43.1519 39.5983 42.5995 39.9035 42.2231C40.2086 41.8466 40.7614 41.7886 41.1382 42.0934Z" fill="#512E84"/>
<path d="M38.9534 45.0916C39.3854 45.3115 39.5572 45.8397 39.3371 46.2713C39.117 46.7029 38.5883 46.8745 38.1563 46.6546C37.7243 46.4347 37.5525 45.9065 37.7726 45.4749C37.9927 45.0433 38.5214 44.8716 38.9534 45.0916Z" fill="#512E84"/>
<path d="M37.4451 48.4805C37.9134 48.6059 38.1914 49.0869 38.0659 49.5548C37.9404 50.0227 37.459 50.3004 36.9907 50.175C36.5223 50.0496 36.2444 49.5687 36.3699 49.1007C36.4954 48.6328 36.9768 48.3551 37.4451 48.4805Z" fill="#512E84"/>
<path d="M36.6792 52.1121C37.1634 52.1375 37.5354 52.5502 37.51 53.034C37.4846 53.5177 37.0715 53.8893 36.5873 53.864C36.1031 53.8386 35.7312 53.4259 35.7565 52.9421C35.7819 52.4584 36.195 52.0868 36.6792 52.1121Z" fill="#512E84"/>
<path d="M36.6892 55.8277C37.1681 55.7519 37.6178 56.0783 37.6936 56.5568C37.7695 57.0353 37.4428 57.4846 36.9639 57.5603C36.485 57.6361 36.0353 57.3097 35.9594 56.8312C35.8836 56.3528 36.2103 55.9035 36.6892 55.8277Z" fill="#512E84"/>
<path d="M37.4712 59.4522C37.9239 59.2786 38.4317 59.5045 38.6055 59.9567C38.7792 60.409 38.5531 60.9163 38.1005 61.09C37.6478 61.2635 37.14 61.0377 36.9663 60.5854C36.7925 60.1332 37.0186 59.6258 37.4712 59.4522Z" fill="#512E84"/>
<path d="M38.9539 62.8373C39.3606 62.5734 39.9043 62.6889 40.1684 63.0952C40.4325 63.5014 40.3169 64.0447 39.9102 64.3085C39.5036 64.5723 38.9599 64.4569 38.6958 64.0506C38.4317 63.6443 38.5473 63.1011 38.9539 62.8373Z" fill="#512E84"/>
<path d="M41.1257 65.8342C41.4686 65.4916 42.0244 65.4916 42.3673 65.8342C42.7101 66.1767 42.7101 66.7321 42.3673 67.0746C42.0244 67.4171 41.4686 67.4171 41.1257 67.0746C40.7829 66.7321 40.7829 66.1767 41.1257 65.8342Z" fill="#512E84"/>
<path d="M43.879 68.3153C44.1431 67.909 44.6868 67.7936 45.0935 68.0574C45.5001 68.3212 45.6157 68.8645 45.3516 69.2707C45.0875 69.677 44.5438 69.7925 44.1372 69.5286C43.7305 69.2648 43.615 68.7216 43.879 68.3153Z" fill="#512E84"/>
<path d="M47.0936 70.1722C47.2673 69.72 47.7752 69.4941 48.2278 69.6677C48.6805 69.8413 48.9066 70.3486 48.7328 70.8009C48.559 71.2531 48.0512 71.479 47.5986 71.3054C47.1459 71.1318 46.9198 70.6245 47.0936 70.1722Z" fill="#512E84"/>
<path d="M50.6288 71.3238C50.7047 70.8453 51.1544 70.5189 51.6333 70.5947C52.1122 70.6704 52.4389 71.1197 52.3631 71.5982C52.2872 72.0767 51.8375 72.4031 51.3586 72.3273C50.8797 72.2515 50.553 71.8022 50.6288 71.3238Z" fill="#512E84"/>
<path d="M54.3303 71.7196C54.3049 71.2359 54.6769 70.8232 55.1611 70.7978C55.6453 70.7725 56.0584 71.1441 56.0838 71.6278C56.1091 72.1116 55.7372 72.5243 55.253 72.5497C54.7688 72.575 54.3557 72.2034 54.3303 71.7196Z" fill="#512E84"/>
<path d="M58.0363 71.3425C57.9108 70.8746 58.1887 70.3936 58.657 70.2682C59.1254 70.1429 59.6068 70.4205 59.7323 70.8885C59.8578 71.3564 59.5798 71.8373 59.1115 71.9627C58.6432 72.0881 58.1618 71.8104 58.0363 71.3425Z" fill="#512E84"/>
<path d="M61.5529 70.1905C61.3328 69.7589 61.5045 69.2307 61.9366 69.0108C62.3686 68.7909 62.8972 68.9625 63.1174 69.3941C63.3375 69.8257 63.1657 70.3539 62.7337 70.5738C62.3017 70.7938 61.773 70.6221 61.5529 70.1905Z" fill="#512E84"/>
<path d="M64.7583 68.3324C64.4532 67.9559 64.5113 67.4036 64.8881 67.0987C65.2649 66.7939 65.8177 66.8519 66.1228 67.2284C66.428 67.6049 66.3699 68.1572 65.9931 68.462C65.6163 68.7669 65.0634 68.7088 64.7583 68.3324Z" fill="#512E84"/>
<path d="M67.5124 65.8493C67.1356 65.5444 67.0775 64.9921 67.3826 64.6156C67.6878 64.2392 68.2406 64.1811 68.6174 64.486C68.9942 64.7908 69.0523 65.3431 68.7472 65.7196C68.4421 66.0961 67.8892 66.1541 67.5124 65.8493Z" fill="#512E84"/>
<path d="M69.6949 62.8498C69.2628 62.6298 69.0911 62.1017 69.3112 61.67C69.5313 61.2384 70.06 61.0668 70.492 61.2867C70.924 61.5066 71.0958 62.0348 70.8757 62.4664C70.6555 62.8981 70.1269 63.0697 69.6949 62.8498Z" fill="#512E84"/>
<path d="M71.2102 59.4649C70.7419 59.3395 70.464 58.8586 70.5895 58.3906C70.715 57.9227 71.1963 57.645 71.6647 57.7704C72.133 57.8958 72.411 58.3768 72.2855 58.8447C72.16 59.3126 71.6786 59.5903 71.2102 59.4649Z" fill="#512E84"/>
<path d="M71.9923 55.8426C71.5081 55.8173 71.1362 55.4046 71.1616 54.9208C71.1869 54.437 71.6 54.0654 72.0842 54.0908C72.5684 54.1161 72.9404 54.5289 72.915 55.0126C72.8896 55.4964 72.4765 55.868 71.9923 55.8426Z" fill="#512E84"/>
<path d="M72.007 52.1413C71.5281 52.2171 71.0784 51.8906 71.0025 51.4122C70.9267 50.9337 71.2534 50.4844 71.7323 50.4086C72.2112 50.3328 72.6609 50.6593 72.7367 51.1377C72.8126 51.6162 72.4858 52.0655 72.007 52.1413Z" fill="#512E84"/>
<path d="M71.2375 48.5134C70.7849 48.687 70.277 48.4611 70.1033 48.0088C69.9295 47.5566 70.1556 47.0492 70.6083 46.8756C71.0609 46.702 71.5687 46.9279 71.7425 47.3802C71.9163 47.8324 71.6902 48.3398 71.2375 48.5134Z" fill="#512E84"/>
<path d="M69.7176 45.1175C69.311 45.3813 68.7672 45.2659 68.5032 44.8596C68.2391 44.4533 68.3547 43.9101 68.7613 43.6462C69.1679 43.3824 69.7117 43.4979 69.9757 43.9041C70.2398 44.3104 70.1242 44.8536 69.7176 45.1175Z" fill="#512E84"/>
<path d="M67.5296 42.1112C67.1868 42.4538 66.6309 42.4538 66.2881 42.1112C65.9452 41.7687 65.9452 41.2133 66.2881 40.8708C66.6309 40.5283 67.1868 40.5283 67.5296 40.8708C67.8725 41.2133 67.8725 41.7687 67.5296 42.1112Z" fill="#512E84"/>
<path d="M64.7692 39.626C64.5052 40.0323 63.9614 40.1478 63.5548 39.8839C63.1482 39.6201 63.0326 39.0769 63.2967 38.6706C63.5607 38.2643 64.1045 38.1489 64.5111 38.4127C64.9177 38.6765 65.0333 39.2198 64.7692 39.626Z" fill="#512E84"/>
<path d="M61.5571 37.7705C61.3833 38.2227 60.8755 38.4486 60.4228 38.275C59.9702 38.1014 59.7441 37.5941 59.9178 37.1418C60.0916 36.6896 60.5994 36.4637 61.0521 36.6373C61.5047 36.8109 61.7308 37.3182 61.5571 37.7705Z" fill="#512E84"/>
<path d="M58.0335 36.6257C57.9576 37.1041 57.5079 37.4306 57.029 37.3548C56.5502 37.279 56.2234 36.8297 56.2993 36.3513C56.3751 35.8728 56.8248 35.5464 57.3037 35.6221C57.7826 35.6979 58.1093 36.1472 58.0335 36.6257Z" fill="#512E84"/>
<path d="M54.3525 36.2417C54.3779 36.7254 54.006 37.1381 53.5218 37.1635C53.0376 37.1888 52.6245 36.8172 52.5991 36.3335C52.5737 35.8497 52.9457 35.437 53.4299 35.4116C53.9141 35.3863 54.3272 35.7579 54.3525 36.2417Z" fill="#512E84"/>
<path d="M50.675 36.6352C50.8005 37.1031 50.5226 37.5841 50.0542 37.7094C49.5859 37.8348 49.1045 37.5571 48.979 37.0892C48.8535 36.6213 49.1315 36.1403 49.5998 36.015C50.0681 35.8896 50.5495 36.1673 50.675 36.6352Z" fill="#512E84"/>
<path d="M45.1472 34.8345C45.3596 35.2337 45.2079 35.7294 44.8084 35.9417C44.4088 36.1539 43.9127 36.0024 43.7002 35.6032C43.4878 35.204 43.6394 34.7083 44.039 34.496C44.4386 34.2838 44.9347 34.4353 45.1472 34.8345Z" fill="#512E84"/>
<path d="M41.9484 36.7156C42.227 37.0719 42.1638 37.5864 41.8072 37.8647C41.4506 38.1431 40.9357 38.0799 40.6571 37.7236C40.3785 37.3673 40.4417 36.8529 40.7983 36.5745C41.1549 36.2962 41.6698 36.3593 41.9484 36.7156Z" fill="#512E84"/>
<path d="M39.129 39.1229C39.4653 39.4254 39.4925 39.943 39.1897 40.279C38.8869 40.615 38.3688 40.6422 38.0325 40.3396C37.6962 40.0371 37.669 39.5195 37.9718 39.1835C38.2746 38.8475 38.7927 38.8203 39.129 39.1229Z" fill="#512E84"/>
<path d="M36.7746 41.9832C37.1583 42.2227 37.275 42.7278 37.0352 43.1112C36.7954 43.4947 36.2899 43.6113 35.9061 43.3717C35.5224 43.1321 35.4057 42.627 35.6455 42.2436C35.8853 41.8602 36.3908 41.7436 36.7746 41.9832Z" fill="#512E84"/>
<path d="M34.9566 45.2096C35.3762 45.379 35.5789 45.8561 35.4094 46.2753C35.2399 46.6945 34.7623 46.897 34.3427 46.7277C33.9232 46.5583 33.7204 46.0812 33.89 45.6619C34.0595 45.2427 34.5371 45.0402 34.9566 45.2096Z" fill="#512E84"/>
<path d="M33.7305 48.7041C34.1731 48.7981 34.4557 49.2328 34.3616 49.6751C34.2675 50.1173 33.8324 50.3996 33.3897 50.3056C32.9471 50.2116 32.6645 49.7769 32.7586 49.3347C32.8527 48.8924 33.2878 48.6101 33.7305 48.7041Z" fill="#512E84"/>
<path d="M33.1333 52.3605C33.5855 52.3763 33.9394 52.7554 33.9236 53.2073C33.9078 53.6591 33.5284 54.0126 33.0761 53.9968C32.6238 53.9811 32.27 53.602 32.2858 53.1501C32.3016 52.6983 32.681 52.3448 33.1333 52.3605Z" fill="#512E84"/>
<path d="M33.173 56.0363C33.6212 55.9734 34.0355 56.2853 34.0985 56.7331C34.1615 57.1808 33.8493 57.5948 33.4011 57.6577C32.953 57.7206 32.5387 57.4087 32.4757 56.9609C32.4127 56.5132 32.7249 56.0993 33.173 56.0363Z" fill="#512E84"/>
<path d="M33.8685 59.6813C34.2989 59.5415 34.7612 59.7769 34.901 60.2069C35.0408 60.6369 34.8053 61.0987 34.3749 61.2384C33.9445 61.3781 33.4823 61.1428 33.3424 60.7128C33.2026 60.2828 33.4381 59.821 33.8685 59.6813Z" fill="#512E84"/>
<path d="M35.1541 63.1369C35.5537 62.9246 36.0498 63.0762 36.2623 63.4754C36.4747 63.8746 36.323 64.3703 35.9235 64.5826C35.5239 64.7948 35.0278 64.6433 34.8153 64.2441C34.6029 63.8449 34.7546 63.3492 35.1541 63.1369Z" fill="#512E84"/>
<path d="M37.0255 66.316C37.3821 66.0376 37.897 66.1008 38.1757 66.4571C38.4543 66.8133 38.391 67.3278 38.0344 67.6062C37.6778 67.8845 37.1629 67.8214 36.8843 67.4651C36.6057 67.1088 36.6689 66.5943 37.0255 66.316Z" fill="#512E84"/>
<path d="M39.4257 69.1218C39.7285 68.7858 40.2466 68.7587 40.5829 69.0612C40.9192 69.3637 40.9464 69.8814 40.6436 70.2174C40.3408 70.5534 39.8227 70.5805 39.4864 70.278C39.1501 69.9754 39.1229 69.4578 39.4257 69.1218Z" fill="#512E84"/>
<path d="M42.282 71.4692C42.5218 71.0857 43.0273 70.9691 43.4111 71.2087C43.7948 71.4483 43.9115 71.9534 43.6717 72.3368C43.4319 72.7202 42.9264 72.8368 42.5426 72.5972C42.1589 72.3576 42.0422 71.8526 42.282 71.4692Z" fill="#512E84"/>
<path d="M45.5074 73.2867C45.6769 72.8675 46.1545 72.665 46.574 72.8344C46.9936 73.0037 47.1963 73.4809 47.0268 73.9001C46.8573 74.3193 46.3797 74.5218 45.9601 74.3524C45.5406 74.1831 45.3378 73.7059 45.5074 73.2867Z" fill="#512E84"/>
<path d="M49.0039 74.5193C49.098 74.0771 49.5331 73.7947 49.9758 73.8887C50.4184 73.9827 50.701 74.4175 50.6069 74.8597C50.5128 75.302 50.0777 75.5843 49.6351 75.4903C49.1924 75.3963 48.9098 74.9616 49.0039 74.5193Z" fill="#512E84"/>
<path d="M52.6654 75.1294C52.6812 74.6775 53.0607 74.324 53.5129 74.3398C53.9652 74.3556 54.319 74.7347 54.3032 75.1865C54.2874 75.6384 53.908 75.9919 53.4557 75.9761C53.0035 75.9603 52.6496 75.5812 52.6654 75.1294Z" fill="#512E84"/>
<path d="M56.3806 75.0984C56.3176 74.6507 56.6299 74.2368 57.078 74.1738C57.5261 74.1109 57.9405 74.4229 58.0034 74.8706C58.0664 75.3183 57.7542 75.7323 57.3061 75.7952C56.8579 75.8581 56.4436 75.5462 56.3806 75.0984Z" fill="#512E84"/>
<path d="M60.0366 74.4275C59.8967 73.9975 60.1323 73.5356 60.5627 73.3959C60.993 73.2562 61.4553 73.4915 61.5951 73.9215C61.735 74.3515 61.4995 74.8133 61.0691 74.9531C60.6387 75.0928 60.1764 74.8575 60.0366 74.4275Z" fill="#512E84"/>
<path d="M63.4876 73.1192C63.2752 72.7199 63.4268 72.2243 63.8264 72.012C64.226 71.7997 64.7221 71.9513 64.9346 72.3505C65.147 72.7497 64.9953 73.2454 64.5958 73.4576C64.1962 73.6699 63.7001 73.5184 63.4876 73.1192Z" fill="#512E84"/>
<path d="M66.6635 71.2309C66.3849 70.8747 66.4481 70.3602 66.8047 70.0818C67.1613 69.8035 67.6762 69.8666 67.9549 70.2229C68.2335 70.5792 68.1702 71.0937 67.8136 71.372C67.457 71.6504 66.9421 71.5872 66.6635 71.2309Z" fill="#512E84"/>
<path d="M69.4677 68.8201C69.1314 68.5176 69.1043 68 69.4071 67.664C69.7099 67.328 70.228 67.3009 70.5643 67.6034C70.9006 67.9059 70.9277 68.4236 70.6249 68.7596C70.3221 69.0956 69.804 69.1227 69.4677 68.8201Z" fill="#512E84"/>
<path d="M71.8151 65.96C71.4313 65.7205 71.3146 65.2154 71.5544 64.832C71.7942 64.4485 72.2997 64.3319 72.6835 64.5715C73.0673 64.8111 73.184 65.3162 72.9442 65.6996C72.7044 66.083 72.1989 66.1996 71.8151 65.96Z" fill="#512E84"/>
<path d="M73.6343 62.7376C73.2147 62.5682 73.012 62.0911 73.1815 61.6719C73.3511 61.2527 73.8286 61.0501 74.2482 61.2195C74.6678 61.3889 74.8705 61.866 74.701 62.2852C74.5315 62.7044 74.0539 62.9069 73.6343 62.7376Z" fill="#512E84"/>
<path d="M74.8701 59.2506C74.4274 59.1566 74.1449 58.7219 74.2389 58.2796C74.333 57.8374 74.7681 57.5551 75.2108 57.6491C75.6534 57.7431 75.936 58.1778 75.8419 58.62C75.7478 59.0623 75.3127 59.3446 74.8701 59.2506Z" fill="#512E84"/>
<path d="M75.4848 55.6051C75.0326 55.5893 74.6788 55.2102 74.6945 54.7584C74.7103 54.3065 75.0898 53.953 75.542 53.9688C75.9943 53.9846 76.3481 54.3637 76.3323 54.8155C76.3165 55.2674 75.9371 55.6209 75.4848 55.6051Z" fill="#512E84"/>
<path d="M75.4599 51.9118C75.0118 51.9747 74.5975 51.6628 74.5345 51.2151C74.4715 50.7673 74.7837 50.3534 75.2318 50.2904C75.68 50.2275 76.0943 50.5395 76.1573 50.9872C76.2203 51.4349 75.9081 51.8489 75.4599 51.9118Z" fill="#512E84"/>
<path d="M74.7961 48.283C74.3657 48.4227 73.9034 48.1874 73.7636 47.7574C73.6238 47.3274 73.8593 46.8655 74.2897 46.7258C74.7201 46.5861 75.1823 46.8214 75.3222 47.2514C75.462 47.6814 75.2265 48.1433 74.7961 48.283Z" fill="#512E84"/>
<path d="M73.4788 44.8112C73.0793 45.0235 72.5831 44.8719 72.3707 44.4727C72.1582 44.0735 72.3099 43.5778 72.7095 43.3656C73.109 43.1533 73.6052 43.3048 73.8176 43.7041C74.0301 44.1033 73.8784 44.599 73.4788 44.8112Z" fill="#512E84"/>
<path d="M71.5829 41.6196C71.2263 41.898 70.7113 41.8348 70.4327 41.4785C70.1541 41.1223 70.2173 40.6078 70.5739 40.3294C70.9305 40.0511 71.4455 40.1142 71.7241 40.4705C72.0027 40.8268 71.9395 41.3413 71.5829 41.6196Z" fill="#512E84"/>
<path d="M69.1658 38.8052C68.863 39.1412 68.3449 39.1684 68.0086 38.8658C67.6723 38.5633 67.6451 38.0457 67.948 37.7097C68.2508 37.3737 68.7689 37.3466 69.1052 37.6491C69.4415 37.9516 69.4686 38.4692 69.1658 38.8052Z" fill="#512E84"/>
<path d="M66.301 36.4535C66.0612 36.837 65.5557 36.9536 65.1719 36.714C64.7882 36.4744 64.6715 35.9693 64.9113 35.5859C65.1511 35.2025 65.6566 35.0859 66.0404 35.3255C66.4241 35.5651 66.5408 36.0701 66.301 36.4535Z" fill="#512E84"/>
<path d="M63.0756 34.636C62.9061 35.0552 62.4286 35.2577 62.009 35.0883C61.5894 34.919 61.3867 34.4418 61.5562 34.0226C61.7257 33.6034 62.2033 33.4009 62.6229 33.5703C63.0424 33.7396 63.2452 34.2168 63.0756 34.636Z" fill="#512E84"/>
<path d="M59.5876 33.4078C59.4935 33.85 59.0584 34.1323 58.6158 34.0383C58.1731 33.9443 57.8906 33.5096 57.9846 33.0674C58.0787 32.6251 58.5138 32.3428 58.9565 32.4368C59.3991 32.5308 59.6817 32.9655 59.5876 33.4078Z" fill="#512E84"/>
<path d="M55.9429 32.8062C55.9271 33.2581 55.5477 33.6116 55.0955 33.5958C54.6432 33.58 54.2894 33.201 54.3052 32.7491C54.321 32.2973 54.7004 31.9437 55.1526 31.9595C55.6049 31.9753 55.9587 32.3544 55.9429 32.8062Z" fill="#512E84"/>
<path d="M52.2524 32.8497C52.3153 33.2974 52.0031 33.7114 51.555 33.7743C51.1068 33.8372 50.6925 33.5253 50.6295 33.0775C50.5665 32.6298 50.8788 32.2159 51.3269 32.1529C51.775 32.09 52.1894 32.402 52.2524 32.8497Z" fill="#512E84"/>
<path d="M48.628 33.5368C48.7679 33.9668 48.5323 34.4286 48.1019 34.5683C47.6715 34.708 47.2093 34.4727 47.0694 34.0427C46.9296 33.6127 47.1651 33.1509 47.5955 33.0112C48.0259 32.8714 48.4882 33.1068 48.628 33.5368Z" fill="#512E84"/>
<path d="M42.8385 32.0719C43.0458 32.437 42.9177 32.901 42.5522 33.1082C42.1867 33.3154 41.7223 33.1873 41.515 32.8222C41.3076 32.457 41.4357 31.9931 41.8012 31.7859C42.1667 31.5787 42.6311 31.7067 42.8385 32.0719Z" fill="#512E84"/>
<path d="M39.6868 34.0205C39.9463 34.3507 39.8888 34.8285 39.5583 35.0878C39.2278 35.3471 38.7495 35.2897 38.49 34.9595C38.2305 34.6293 38.288 34.1514 38.6185 33.8921C38.949 33.6328 39.4273 33.6903 39.6868 34.0205Z" fill="#512E84"/>
<path d="M36.8645 36.4161C37.1704 36.704 37.1848 37.1851 36.8967 37.4907C36.6086 37.7963 36.1271 37.8107 35.8212 37.5229C35.5153 37.235 35.5009 36.7539 35.789 36.4483C36.0771 36.1427 36.5586 36.1283 36.8645 36.4161Z" fill="#512E84"/>
<path d="M34.4347 39.2053C34.7801 39.4444 34.8661 39.918 34.6268 40.2631C34.3875 40.6082 33.9135 40.6942 33.5681 40.4551C33.2226 40.216 33.1366 39.7424 33.3759 39.3973C33.6152 39.0522 34.0892 38.9663 34.4347 39.2053Z" fill="#512E84"/>
<path d="M32.4177 42.2379C32.795 42.4229 32.9507 42.8783 32.7655 43.2552C32.5804 43.6321 32.1245 43.7877 31.7472 43.6027C31.37 43.4177 31.2143 42.9622 31.3995 42.5853C31.5846 42.2085 32.0405 42.0529 32.4177 42.2379Z" fill="#512E84"/>
<path d="M30.9206 45.6067C31.3212 45.7334 31.5431 46.1606 31.4162 46.5609C31.2894 46.9611 30.8618 47.1828 30.4612 47.0561C30.0605 46.9294 29.8386 46.5021 29.9655 46.1019C30.0924 45.7017 30.5199 45.4799 30.9206 45.6067Z" fill="#512E84"/>
<path d="M29.9486 49.1637C30.3636 49.2294 30.6468 49.6188 30.581 50.0334C30.5153 50.4481 30.1256 50.731 29.7105 50.6653C29.2955 50.5997 29.0123 50.2103 29.078 49.7956C29.1438 49.3809 29.5335 49.098 29.9486 49.1637Z" fill="#512E84"/>
<path d="M29.5235 52.8295C29.9437 52.8326 30.2818 53.1755 30.2787 53.5953C30.2755 54.0152 29.9323 54.353 29.5121 54.3498C29.0919 54.3467 28.7538 54.0038 28.757 53.584C28.7601 53.1641 29.1033 52.8264 29.5235 52.8295Z" fill="#512E84"/>
<path d="M29.6548 56.5222C30.0708 56.4627 30.4563 56.7514 30.5158 57.167C30.5753 57.5826 30.2864 57.9677 29.8704 58.0272C29.4544 58.0867 29.0689 57.798 29.0094 57.3824C28.9499 56.9668 29.2389 56.5817 29.6548 56.5222Z" fill="#512E84"/>
<path d="M30.3397 60.1592C30.7421 60.0385 31.1664 60.2666 31.2872 60.6687C31.4081 61.0708 31.1798 61.4946 30.7773 61.6154C30.3749 61.7361 29.9506 61.508 29.8298 61.1059C29.7089 60.7038 29.9372 60.28 30.3397 60.1592Z" fill="#512E84"/>
<path d="M31.5547 63.6388C31.9347 63.4594 32.3882 63.6218 32.5677 64.0014C32.7472 64.381 32.5847 64.8341 32.2047 65.0135C31.8248 65.1928 31.3713 65.0304 31.1918 64.6508C31.0123 64.2712 31.1748 63.8181 31.5547 63.6388Z" fill="#512E84"/>
<path d="M33.2112 66.9067C33.5602 66.6728 34.0328 66.7658 34.2669 67.1144C34.5011 67.4631 34.408 67.9353 34.059 68.1692C33.71 68.4031 33.2374 68.3101 33.0033 67.9615C32.7691 67.6128 32.8622 67.1406 33.2112 66.9067Z" fill="#512E84"/>
<path d="M35.3624 69.8791C35.6726 69.5958 36.1539 69.6174 36.4374 69.9273C36.7209 70.2372 36.6993 70.718 36.3891 71.0013C36.0789 71.2845 35.5977 71.2629 35.3141 70.953C35.0306 70.6432 35.0523 70.1623 35.3624 69.8791Z" fill="#512E84"/>
<path d="M37.9396 72.4975C38.2041 72.1712 38.6832 72.1209 39.0098 72.3851C39.3363 72.6493 39.3867 73.128 39.1222 73.4543C38.8578 73.7805 38.3787 73.8308 38.0521 73.5666C37.7255 73.3024 37.6752 72.8237 37.9396 72.4975Z" fill="#512E84"/>
<path d="M40.8852 74.7034C41.0981 74.3414 41.5643 74.2203 41.9266 74.433C42.289 74.6456 42.4102 75.1114 42.1974 75.4734C41.9845 75.8354 41.5183 75.9565 41.1559 75.7439C40.7936 75.5313 40.6724 75.0654 40.8852 74.7034Z" fill="#512E84"/>
<path d="M44.1335 76.4476C44.2899 76.0579 44.7329 75.8688 45.1229 76.0251C45.5129 76.1814 45.7022 76.624 45.5458 77.0136C45.3893 77.4033 44.9464 77.5924 44.5564 77.4361C44.1664 77.2798 43.977 76.8372 44.1335 76.4476Z" fill="#512E84"/>
<path d="M47.6117 77.6911C47.7083 77.2825 48.1181 77.0295 48.5271 77.126C48.9361 77.2224 49.1893 77.6319 49.0927 78.0405C48.9962 78.4491 48.5864 78.7021 48.1774 78.6056C47.7684 78.5091 47.5152 78.0997 47.6117 77.6911Z" fill="#512E84"/>
<path d="M51.2424 78.4061C51.2769 77.9877 51.6444 77.6765 52.0632 77.711C52.482 77.7455 52.7935 78.1126 52.7589 78.5311C52.7244 78.9495 52.3569 79.2607 51.9381 79.2262C51.5193 79.1917 51.2078 78.8245 51.2424 78.4061Z" fill="#512E84"/>
<path d="M54.9442 78.5767C54.916 78.1578 55.2329 77.7953 55.6522 77.7671C56.0715 77.7388 56.4342 78.0555 56.4625 78.4744C56.4908 78.8933 56.1738 79.2557 55.7546 79.284C55.3353 79.3122 54.9725 78.9955 54.9442 78.5767Z" fill="#512E84"/>
<path d="M58.6347 78.1989C58.5442 77.7889 58.8036 77.3833 59.2139 77.2929C59.6243 77.2026 60.0303 77.4617 60.1207 77.8717C60.2112 78.2817 59.9518 78.6873 59.5415 78.7777C59.1311 78.868 58.7251 78.6089 58.6347 78.1989Z" fill="#512E84"/>
<path d="M62.2312 77.2814C62.0806 76.8894 62.2766 76.4497 62.6689 76.2993C63.0612 76.1488 63.5013 76.3446 63.6519 76.7365C63.8025 77.1285 63.6065 77.5682 63.2142 77.7186C62.8219 77.8691 62.3818 77.6733 62.2312 77.2814Z" fill="#512E84"/>
<path d="M65.5964 75.819C65.389 75.4539 65.5172 74.9899 65.8826 74.7827C66.2481 74.5755 66.7125 74.7036 66.9199 75.0687C67.1273 75.4339 66.9991 75.8979 66.6336 76.105C66.2682 76.3122 65.8038 76.1842 65.5964 75.819Z" fill="#512E84"/>
<path d="M68.7122 73.8701C68.4526 73.5399 68.5101 73.062 68.8406 72.8027C69.1711 72.5434 69.6494 72.6009 69.9089 72.9311C70.1685 73.2613 70.111 73.7391 69.7805 73.9984C69.45 74.2577 68.9717 74.2003 68.7122 73.8701Z" fill="#512E84"/>
<path d="M71.5089 71.478C71.203 71.1901 71.1886 70.709 71.4767 70.4034C71.7648 70.0978 72.2464 70.0834 72.5523 70.3712C72.8582 70.6591 72.8726 71.1402 72.5845 71.4458C72.2963 71.7514 71.8148 71.7658 71.5089 71.478Z" fill="#512E84"/>
<path d="M73.9242 68.6962C73.5788 68.4571 73.4928 67.9835 73.7321 67.6384C73.9714 67.2933 74.4454 67.2074 74.7908 67.4464C75.1362 67.6855 75.2222 68.1591 74.9829 68.5042C74.7436 68.8493 74.2696 68.9353 73.9242 68.6962Z" fill="#512E84"/>
<path d="M75.9041 65.5868C75.5269 65.4018 75.3712 64.9463 75.5563 64.5694C75.7415 64.1926 76.1974 64.037 76.5746 64.222C76.9518 64.407 77.1075 64.8624 76.9224 65.2393C76.7372 65.6162 76.2813 65.7718 75.9041 65.5868Z" fill="#512E84"/>
<path d="M77.4043 62.2193C77.0037 62.0926 76.7818 61.6654 76.9087 61.2651C77.0355 60.8649 77.4631 60.6432 77.8637 60.7699C78.2643 60.8967 78.4862 61.3239 78.3594 61.7241C78.2325 62.1244 77.8049 62.3461 77.4043 62.2193Z" fill="#512E84"/>
<path d="M78.3914 58.669C77.9763 58.6033 77.6932 58.214 77.7589 57.7993C77.8246 57.3846 78.2144 57.1017 78.6294 57.1674C79.0445 57.2331 79.3276 57.6225 79.2619 58.0371C79.1962 58.4518 78.8064 58.7347 78.3914 58.669Z" fill="#512E84"/>
<path d="M78.8432 55.0151C78.423 55.012 78.0849 54.6691 78.0881 54.2493C78.0912 53.8295 78.4344 53.4917 78.8546 53.4948C79.2748 53.498 79.6129 53.8408 79.6097 54.2607C79.6066 54.6805 79.2634 55.0183 78.8432 55.0151Z" fill="#512E84"/>
<path d="M78.7497 51.3393C78.3338 51.3988 77.9483 51.1101 77.8888 50.6945C77.8293 50.2789 78.1182 49.8937 78.5342 49.8343C78.9502 49.7748 79.3357 50.0635 79.3952 50.4791C79.4547 50.8947 79.1657 51.2798 78.7497 51.3393Z" fill="#512E84"/>
<path d="M78.1131 47.7237C77.7106 47.8444 77.2864 47.6163 77.1655 47.2142C77.0447 46.8121 77.273 46.3883 77.6754 46.2675C78.0779 46.1468 78.5021 46.3749 78.623 46.777C78.7438 47.1791 78.5155 47.6029 78.1131 47.7237Z" fill="#512E84"/>
<path d="M76.9187 44.2362C76.5388 44.4155 76.0852 44.2532 75.9058 43.8735C75.7263 43.4939 75.8888 43.0408 76.2687 42.8615C76.6487 42.6822 77.1022 42.8445 77.2817 43.2242C77.4612 43.6038 77.2987 44.0569 76.9187 44.2362Z" fill="#512E84"/>
<path d="M75.1934 40.9548C74.8444 41.1887 74.3718 41.0957 74.1377 40.747C73.9035 40.3984 73.9967 39.9262 74.3456 39.6923C74.6946 39.4584 75.1672 39.5514 75.4013 39.9C75.6355 40.2487 75.5424 40.7209 75.1934 40.9548Z" fill="#512E84"/>
<path d="M73.0043 37.9656C72.6941 38.2488 72.2129 38.2272 71.9294 37.9173C71.6459 37.6075 71.6675 37.1266 71.9776 36.8434C72.2878 36.5601 72.7691 36.5817 73.0526 36.8916C73.3361 37.2015 73.3145 37.6823 73.0043 37.9656Z" fill="#512E84"/>
<path d="M70.4275 35.3248C70.163 35.6511 69.6839 35.7014 69.3573 35.4372C69.0308 35.173 68.9804 34.6943 69.2449 34.368C69.5093 34.0418 69.9884 33.9915 70.315 34.2557C70.6416 34.5199 70.6919 34.9986 70.4275 35.3248Z" fill="#512E84"/>
<path d="M67.4642 33.1132C67.2513 33.4752 66.7851 33.5963 66.4227 33.3837C66.0604 33.171 65.9392 32.7052 66.152 32.3432C66.3649 31.9812 66.8311 31.8601 67.1934 32.0727C67.5558 32.2854 67.677 32.7512 67.4642 33.1132Z" fill="#512E84"/>
<path d="M64.2097 31.3689C64.0533 31.7585 63.6103 31.9477 63.2203 31.7914C62.8303 31.6351 62.6409 31.1925 62.7974 30.8029C62.9538 30.4132 63.3968 30.224 63.7868 30.3803C64.1768 30.5366 64.3662 30.9792 64.2097 31.3689Z" fill="#512E84"/>
<path d="M60.7368 30.1308C60.6403 30.5394 60.2305 30.7925 59.8215 30.696C59.4125 30.5995 59.1593 30.19 59.2558 29.7814C59.3524 29.3729 59.7622 29.1198 60.1712 29.2163C60.5802 29.3128 60.8334 29.7222 60.7368 30.1308Z" fill="#512E84"/>
<path d="M57.1231 29.4267C57.0886 29.8451 56.7211 30.1564 56.3023 30.1219C55.8835 30.0874 55.572 29.7202 55.6066 29.3018C55.6411 28.8834 56.0086 28.5721 56.4274 28.6067C56.8462 28.6412 57.1577 29.0083 57.1231 29.4267Z" fill="#512E84"/>
<path d="M53.4493 29.2723C53.4776 29.6912 53.1606 30.0536 52.7414 30.0819C52.3221 30.1101 51.9593 29.7934 51.931 29.3746C51.9028 28.9557 52.2197 28.5932 52.639 28.565C53.0583 28.5367 53.4211 28.8534 53.4493 29.2723Z" fill="#512E84"/>
<path d="M49.7975 29.6709C49.8879 30.0809 49.6285 30.4866 49.2182 30.5769C48.8078 30.6673 48.4018 30.4082 48.3114 29.9982C48.221 29.5882 48.4803 29.1825 48.8907 29.0922C49.301 29.0018 49.707 29.2609 49.7975 29.6709Z" fill="#512E84"/>
<path d="M46.2491 30.6138C46.3997 31.0058 46.2038 31.4455 45.8115 31.5959C45.4191 31.7464 44.979 31.5506 44.8285 31.1587C44.6779 30.7667 44.8738 30.327 45.2661 30.1766C45.6584 30.0261 46.0985 30.2219 46.2491 30.6138Z" fill="#512E84"/>
<path d="M40.2159 29.5035C40.4186 29.8339 40.3147 30.266 39.984 30.4685C39.6533 30.6709 39.2209 30.5672 39.0182 30.2368C38.8155 29.9064 38.9194 29.4743 39.2501 29.2719C39.5808 29.0694 40.0132 29.1731 40.2159 29.5035Z" fill="#512E84"/>
<path d="M37.1231 31.5344C37.3672 31.8355 37.3208 32.2774 37.0193 32.5213C36.7179 32.7652 36.2756 32.7187 36.0315 32.4176C35.7874 32.1164 35.8339 31.6745 36.1353 31.4306C36.4368 31.1868 36.879 31.2332 37.1231 31.5344Z" fill="#512E84"/>
<path d="M34.3207 33.9371C34.6021 34.2039 34.6137 34.6481 34.3467 34.9292C34.0797 35.2103 33.6352 35.2219 33.3538 34.9551C33.0725 34.6884 33.0608 34.2442 33.3278 33.9631C33.5948 33.682 34.0394 33.6704 34.3207 33.9371Z" fill="#512E84"/>
<path d="M31.8664 36.6926C32.1802 36.9204 32.2497 37.3592 32.0217 37.6727C31.7938 37.9862 31.3545 38.0557 31.0407 37.8279C30.7269 37.6002 30.6574 37.1613 30.8853 36.8478C31.1133 36.5343 31.5526 36.4648 31.8664 36.6926Z" fill="#512E84"/>
<path d="M29.7981 39.7447C30.139 39.9296 30.2653 40.3556 30.0802 40.6962C29.8951 41.0368 29.4688 41.163 29.1279 40.978C28.787 40.7931 28.6607 40.3671 28.8458 40.0265C29.0309 39.686 29.4572 39.5598 29.7981 39.7447Z" fill="#512E84"/>
<path d="M28.1514 43.0413C28.5135 43.1802 28.6944 43.5861 28.5553 43.9479C28.4163 44.3097 28.0101 44.4904 27.648 44.3515C27.2858 44.2126 27.105 43.8067 27.244 43.4449C27.383 43.0831 27.7892 42.9024 28.1514 43.0413Z" fill="#512E84"/>
<path d="M26.9543 46.526C27.3314 46.6165 27.5638 46.9953 27.4732 47.3721C27.3827 47.7489 27.0035 47.9811 26.6264 47.8906C26.2492 47.8001 26.0168 47.4213 26.1074 47.0445C26.1979 46.6677 26.5771 46.4355 26.9543 46.526Z" fill="#512E84"/>
<path d="M26.2273 50.1391C26.6131 50.1796 26.893 50.5249 26.8524 50.9103C26.8119 51.2957 26.4663 51.5753 26.0805 51.5348C25.6947 51.4943 25.4149 51.149 25.4554 50.7636C25.496 50.3782 25.8416 50.0986 26.2273 50.1391Z" fill="#512E84"/>
<path d="M25.983 53.8188C26.3707 53.8087 26.6933 54.1145 26.7035 54.5019C26.7136 54.8893 26.4075 55.2116 26.0198 55.2218C25.632 55.2319 25.3094 54.9261 25.2993 54.5387C25.2891 54.1513 25.5952 53.829 25.983 53.8188Z" fill="#512E84"/>
<path d="M26.2254 57.5023C26.6085 57.4416 26.9683 57.7028 27.029 58.0855C27.0896 58.4683 26.8283 58.8278 26.4451 58.8884C26.062 58.949 25.7023 58.6879 25.6416 58.3051C25.5809 57.9223 25.8423 57.5629 26.2254 57.5023Z" fill="#512E84"/>
<path d="M26.9505 61.1263C27.3224 61.0162 27.7132 61.2282 27.8233 61.5998C27.9335 61.9714 27.7213 62.3618 27.3494 62.4719C26.9775 62.582 26.5867 62.37 26.4765 61.9984C26.3664 61.6268 26.5785 61.2364 26.9505 61.1263Z" fill="#512E84"/>
<path d="M28.1457 64.629C28.5001 64.4713 28.9152 64.6306 29.073 64.9846C29.2308 65.3386 29.0714 65.7534 28.7171 65.911C28.3627 66.0687 27.9476 65.9094 27.7898 65.5554C27.632 65.2014 27.7914 64.7866 28.1457 64.629Z" fill="#512E84"/>
<path d="M29.739 67.9305C30.0697 67.728 30.5021 67.8317 30.7048 68.1621C30.9074 68.4925 30.8036 68.9246 30.4729 69.1271C30.1422 69.3295 29.7098 69.2258 29.5071 68.8954C29.3044 68.565 29.4082 68.1329 29.739 67.9305Z" fill="#512E84"/>
<path d="M31.7547 70.9942C32.0562 70.7503 32.4984 70.7967 32.7425 71.0979C32.9866 71.3991 32.9401 71.841 32.6387 72.0848C32.3372 72.3287 31.895 72.2823 31.6509 71.9811C31.4068 71.6799 31.4533 71.2381 31.7547 70.9942Z" fill="#512E84"/>
<path d="M34.2007 73.8174C34.4677 73.5363 34.9123 73.5247 35.1936 73.7914C35.475 74.0582 35.4866 74.5023 35.2196 74.7835C34.9526 75.0646 34.5081 75.0762 34.2267 74.8094C33.9454 74.5427 33.9337 74.0985 34.2007 73.8174Z" fill="#512E84"/>
<path d="M36.9577 76.2535C37.1857 75.94 37.6249 75.8705 37.9387 76.0983C38.2525 76.3261 38.3221 76.7649 38.0941 77.0784C37.8661 77.392 37.4268 77.4615 37.113 77.2337C36.7992 77.0059 36.7297 76.5671 36.9577 76.2535Z" fill="#512E84"/>
<path d="M40.0136 78.3095C40.1987 77.9689 40.6251 77.8428 40.9659 78.0277C41.3068 78.2126 41.4331 78.6386 41.248 78.9792C41.063 79.3197 40.6366 79.4459 40.2957 79.261C39.9548 79.0761 39.8285 78.6501 40.0136 78.3095Z" fill="#512E84"/>
<path d="M43.3162 79.9501C43.4552 79.5883 43.8615 79.4076 44.2236 79.5465C44.5857 79.6853 44.7666 80.0912 44.6276 80.453C44.4886 80.8148 44.0824 80.9955 43.7202 80.8566C43.3581 80.7178 43.1772 80.3119 43.3162 79.9501Z" fill="#512E84"/>
<path d="M46.8091 81.1472C46.8996 80.7704 47.2788 80.5382 47.656 80.6287C48.0331 80.7192 48.2655 81.098 48.175 81.4748C48.0844 81.8517 47.7052 82.0838 47.3281 81.9933C46.9509 81.9029 46.7185 81.524 46.8091 81.1472Z" fill="#512E84"/>
<path d="M50.4324 81.8804C50.4729 81.495 50.8185 81.2154 51.2043 81.2559C51.59 81.2964 51.8699 81.6417 51.8293 82.0271C51.7888 82.4125 51.4432 82.6921 51.0574 82.6516C50.6717 82.6111 50.3918 82.2658 50.4324 81.8804Z" fill="#512E84"/>
<path d="M54.1241 82.1371C54.1139 81.7497 54.42 81.4274 54.8078 81.4173C55.1955 81.4071 55.5181 81.713 55.5282 82.1004C55.5384 82.4878 55.2323 82.81 54.8445 82.8202C54.4568 82.8303 54.1342 82.5245 54.1241 82.1371Z" fill="#512E84"/>
<path d="M57.821 81.9129C57.7603 81.5302 58.0217 81.1707 58.4048 81.1101C58.788 81.0495 59.1477 81.3106 59.2084 81.6934C59.2691 82.0762 59.0077 82.4356 58.6246 82.4962C58.2415 82.5568 57.8817 82.2957 57.821 81.9129Z" fill="#512E84"/>
<path d="M61.46 81.2117C61.3498 80.8402 61.562 80.4497 61.9339 80.3396C62.3059 80.2296 62.6967 80.4416 62.8068 80.8132C62.917 81.1847 62.7048 81.5752 62.3329 81.6853C61.961 81.7953 61.5702 81.5833 61.46 81.2117Z" fill="#512E84"/>
<path d="M64.9788 80.0455C64.821 79.6915 64.9804 79.2767 65.3347 79.1191C65.6891 78.9614 66.1042 79.1207 66.262 79.4747C66.4198 79.8287 66.2604 80.2435 65.906 80.4011C65.5517 80.5588 65.1365 80.3995 64.9788 80.0455Z" fill="#512E84"/>
<path d="M68.2735 78.4175C68.0708 78.0871 68.1747 77.655 68.5054 77.4526C68.8361 77.2501 69.2685 77.3538 69.4712 77.6842C69.6739 78.0146 69.57 78.4467 69.2393 78.6492C68.9086 78.8516 68.4762 78.7479 68.2735 78.4175Z" fill="#512E84"/>
<path d="M71.3314 76.3722C71.0873 76.0711 71.1338 75.6292 71.4352 75.3853C71.7367 75.1414 72.1789 75.1879 72.4231 75.4891C72.6672 75.7902 72.6207 76.2321 72.3192 76.476C72.0178 76.7199 71.5755 76.6734 71.3314 76.3722Z" fill="#512E84"/>
<path d="M74.1002 73.9448C73.8188 73.678 73.8072 73.2339 74.0742 72.9528C74.3412 72.6716 74.7857 72.66 75.0671 72.9268C75.3485 73.1935 75.3601 73.6377 75.0931 73.9188C74.8261 74.1999 74.3816 74.2115 74.1002 73.9448Z" fill="#512E84"/>
<path d="M76.5324 71.1766C76.2186 70.9488 76.1491 70.51 76.3771 70.1965C76.6051 69.8829 77.0443 69.8134 77.3581 70.0412C77.6719 70.269 77.7415 70.7078 77.5135 71.0214C77.2855 71.3349 76.8462 71.4044 76.5324 71.1766Z" fill="#512E84"/>
<path d="M78.5865 68.1151C78.2456 67.9302 78.1193 67.5042 78.3044 67.1636C78.4895 66.8231 78.9159 66.6969 79.2568 66.8818C79.5977 67.0667 79.724 67.4927 79.5389 67.8333C79.3538 68.1738 78.9274 68.3 78.5865 68.1151Z" fill="#512E84"/>
<path d="M80.2273 64.8126C79.8652 64.6738 79.6843 64.2679 79.8233 63.9061C79.9624 63.5443 80.3686 63.3636 80.7307 63.5025C81.0929 63.6413 81.2737 64.0472 81.1347 64.409C80.9957 64.7708 80.5895 64.9515 80.2273 64.8126Z" fill="#512E84"/>
<path d="M81.4268 61.3257C81.0496 61.2353 80.8173 60.8565 80.9078 60.4796C80.9984 60.1028 81.3775 59.8706 81.7547 59.9611C82.1319 60.0516 82.3642 60.4304 82.2737 60.8072C82.1831 61.1841 81.804 61.4162 81.4268 61.3257Z" fill="#512E84"/>
<path d="M82.1644 57.7141C81.7786 57.6736 81.4987 57.3283 81.5393 56.9429C81.5798 56.5574 81.9254 56.2778 82.3112 56.3184C82.697 56.3589 82.9768 56.7041 82.9363 57.0896C82.8957 57.475 82.5501 57.7546 82.1644 57.7141Z" fill="#512E84"/>
<path d="M82.4274 54.0394C82.0396 54.0495 81.7171 53.7437 81.7069 53.3563C81.6968 52.9689 82.0029 52.6466 82.3906 52.6365C82.7784 52.6263 83.1009 52.9322 83.1111 53.3196C83.1212 53.707 82.8151 54.0293 82.4274 54.0394Z" fill="#512E84"/>
<path d="M82.2114 50.3646C81.8283 50.4252 81.4685 50.1641 81.4079 49.7813C81.3472 49.3985 81.6086 49.0391 81.9917 48.9785C82.3748 48.9179 82.7346 49.179 82.7952 49.5618C82.8559 49.9445 82.5945 50.304 82.2114 50.3646Z" fill="#512E84"/>
<path d="M81.5202 46.7526C81.1482 46.8627 80.7574 46.6507 80.6473 46.2791C80.5371 45.9075 80.7493 45.5171 81.1212 45.407C81.4931 45.2969 81.8839 45.5089 81.9941 45.8805C82.1043 46.2521 81.8921 46.6425 81.5202 46.7526Z" fill="#512E84"/>
<path d="M80.3654 43.2652C80.011 43.4228 79.5959 43.2636 79.4381 42.9095C79.2803 42.5555 79.4397 42.1407 79.7941 41.9831C80.1484 41.8255 80.5636 41.9847 80.7213 42.3387C80.8791 42.6927 80.7197 43.1075 80.3654 43.2652Z" fill="#512E84"/>
<path d="M78.7234 39.9452C78.3927 40.1477 77.9603 40.044 77.7576 39.7136C77.5549 39.3832 77.6587 38.9511 77.9895 38.7486C78.3202 38.5462 78.7526 38.6499 78.9553 38.9803C79.1579 39.3107 79.0541 39.7428 78.7234 39.9452Z" fill="#512E84"/>
<path d="M76.6658 36.8664C76.3643 37.1103 75.922 37.0638 75.6779 36.7627C75.4338 36.4615 75.4803 36.0196 75.7818 35.7757C76.0832 35.5319 76.5255 35.5783 76.7696 35.8795C77.0137 36.1806 76.9672 36.6225 76.6658 36.8664Z" fill="#512E84"/>
<path d="M74.2029 34.0923C73.9359 34.3734 73.4914 34.385 73.21 34.1182C72.9287 33.8515 72.917 33.4073 73.184 33.1262C73.451 32.8451 73.8956 32.8335 74.1769 33.1003C74.4583 33.367 74.4699 33.8112 74.2029 34.0923Z" fill="#512E84"/>
<path d="M71.4277 31.6478C71.1997 31.9613 70.7605 32.0308 70.4467 31.8031C70.1329 31.5753 70.0633 31.1364 70.2913 30.8229C70.5193 30.5094 70.9585 30.4399 71.2723 30.6677C71.5861 30.8955 71.6557 31.3343 71.4277 31.6478Z" fill="#512E84"/>
<path d="M68.3617 29.5864C68.1766 29.927 67.7502 30.0532 67.4093 29.8682C67.0684 29.6833 66.9421 29.2573 67.1272 28.9167C67.3123 28.5762 67.7387 28.45 68.0796 28.6349C68.4204 28.8198 68.5467 29.2458 68.3617 29.5864Z" fill="#512E84"/>
<path d="M65.0573 27.9432C64.9183 28.305 64.512 28.4858 64.1499 28.3469C63.7878 28.208 63.6069 27.8021 63.7459 27.4403C63.8849 27.0785 64.2912 26.8978 64.6533 27.0367C65.0154 27.1756 65.1963 27.5814 65.0573 27.9432Z" fill="#512E84"/>
<path d="M61.5711 26.7465C61.4806 27.1233 61.1014 27.3555 60.7243 27.265C60.3471 27.1745 60.1147 26.7957 60.2053 26.4189C60.2958 26.042 60.675 25.8099 61.0522 25.9004C61.4293 25.9908 61.6617 26.3697 61.5711 26.7465Z" fill="#512E84"/>
<path d="M57.9628 26.0166C57.9223 26.4021 57.5767 26.6817 57.1909 26.6411C56.8052 26.6006 56.5253 26.2554 56.5658 25.8699C56.6064 25.4845 56.952 25.2049 57.3377 25.2454C57.7235 25.2859 58.0034 25.6312 57.9628 26.0166Z" fill="#512E84"/>
<path d="M54.2941 25.7661C54.3042 26.1535 53.9981 26.4758 53.6104 26.486C53.2226 26.4961 52.9001 26.1903 52.8899 25.8029C52.8798 25.4155 53.1859 25.0932 53.5736 25.083C53.9614 25.0729 54.2839 25.3787 54.2941 25.7661Z" fill="#512E84"/>
<path d="M50.6277 25.9993C50.6884 26.3821 50.427 26.7415 50.0439 26.8021C49.6608 26.8627 49.301 26.6016 49.2403 26.2188C49.1797 25.8361 49.441 25.4766 49.8242 25.416C50.2073 25.3554 50.567 25.6165 50.6277 25.9993Z" fill="#512E84"/>
<path d="M47.0264 26.7121C47.1366 27.0837 46.9244 27.4741 46.5525 27.5842C46.1806 27.6943 45.7898 27.4823 45.6796 27.1107C45.5695 26.7391 45.7816 26.3486 46.1536 26.2386C46.5255 26.1285 46.9163 26.3405 47.0264 26.7121Z" fill="#512E84"/>
<path d="M43.5519 27.8924C43.7096 28.2464 43.5503 28.6612 43.1959 28.8188C42.8416 28.9765 42.4264 28.8172 42.2687 28.4632C42.1109 28.1092 42.2702 27.6944 42.6246 27.5368C42.979 27.3791 43.3941 27.5383 43.5519 27.8924Z" fill="#512E84"/>
<path d="M37.3027 27.1721C37.4998 27.4678 37.4197 27.8671 37.1238 28.064C36.8279 28.261 36.4282 28.1809 36.2311 27.8853C36.034 27.5896 36.1141 27.1903 36.41 26.9933C36.7059 26.7964 37.1056 26.8764 37.3027 27.1721Z" fill="#512E84"/>
<path d="M34.286 29.3099C34.5161 29.5807 34.483 29.9866 34.2119 30.2165C33.9409 30.4464 33.5346 30.4133 33.3045 30.1425C33.0743 29.8717 33.1075 29.4658 33.3785 29.2359C33.6496 29.0059 34.0559 29.0391 34.286 29.3099Z" fill="#512E84"/>
<path d="M31.5417 31.782C31.8018 32.0243 31.816 32.4313 31.5735 32.6911C31.331 32.9509 30.9236 32.9651 30.6636 32.7228C30.4035 32.4806 30.3893 32.0735 30.6318 31.8137C30.8743 31.5539 31.2817 31.5397 31.5417 31.782Z" fill="#512E84"/>
<path d="M29.107 34.555C29.3934 34.7655 29.4549 35.1681 29.2442 35.4543C29.0335 35.7404 28.6306 35.8018 28.3441 35.5913C28.0577 35.3809 27.9963 34.9782 28.2069 34.6921C28.4176 34.4059 28.8206 34.3445 29.107 34.555Z" fill="#512E84"/>
<path d="M27.0148 37.5914C27.3237 37.7672 27.4315 38.16 27.2555 38.4687C27.0795 38.7774 26.6864 38.8851 26.3775 38.7092C26.0685 38.5334 25.9607 38.1406 26.1367 37.8319C26.3127 37.5233 26.7058 37.4156 27.0148 37.5914Z" fill="#512E84"/>
<path d="M25.2933 40.8502C25.6206 40.989 25.7733 41.3666 25.6344 41.6936C25.4954 42.0206 25.1175 42.1732 24.7902 42.0343C24.4629 41.8955 24.3102 41.5179 24.4491 41.1909C24.588 40.8639 24.966 40.7114 25.2933 40.8502Z" fill="#512E84"/>
<path d="M23.9659 44.2872C24.3071 44.3871 24.5026 44.7445 24.4026 45.0854C24.3027 45.4263 23.945 45.6216 23.6038 45.5217C23.2626 45.4218 23.067 45.0645 23.167 44.7236C23.267 44.3827 23.6247 44.1873 23.9659 44.2872Z" fill="#512E84"/>
<path d="M23.0505 47.856C23.401 47.9157 23.6367 48.2479 23.577 48.5981C23.5173 48.9483 23.1848 49.1839 22.8343 49.1242C22.4837 49.0646 22.248 48.7323 22.3077 48.3821C22.3674 48.0319 22.6999 47.7964 23.0505 47.856Z" fill="#512E84"/>
<path d="M22.5594 51.5084C22.9145 51.527 23.1873 51.8296 23.1687 52.1844C23.15 52.5391 22.8471 52.8117 22.492 52.7931C22.137 52.7745 21.8642 52.4718 21.8828 52.1171C21.9014 51.7623 22.2043 51.4898 22.5594 51.5084Z" fill="#512E84"/>
<path d="M22.4994 55.1949C22.8543 55.1722 23.1604 55.4411 23.1831 55.7957C23.2058 56.1502 22.9366 56.456 22.5818 56.4787C22.2269 56.5014 21.9209 56.2324 21.8981 55.8779C21.8754 55.5234 22.1446 55.2176 22.4994 55.1949Z" fill="#512E84"/>
<path d="M22.8713 58.8657C23.2211 58.8019 23.5563 59.0336 23.6201 59.3831C23.6839 59.7326 23.452 60.0675 23.1022 60.1313C22.7524 60.195 22.4172 59.9633 22.3534 59.6138C22.2896 59.2644 22.5215 58.9294 22.8713 58.8657Z" fill="#512E84"/>
<path d="M23.6699 62.4711C24.0099 62.3672 24.3698 62.5584 24.4738 62.8982C24.5778 63.2379 24.3864 63.5975 24.0464 63.7013C23.7063 63.8052 23.3464 63.614 23.2425 63.2743C23.1385 62.9346 23.3299 62.575 23.6699 62.4711Z" fill="#512E84"/>
<path d="M24.8845 65.9624C25.2102 65.8198 25.5899 65.968 25.7326 66.2934C25.8754 66.6187 25.7271 66.9981 25.4014 67.1407C25.0757 67.2833 24.696 67.1351 24.5533 66.8098C24.4106 66.4844 24.5589 66.105 24.8845 65.9624Z" fill="#512E84"/>
<path d="M26.4913 69.2778C26.7982 69.0984 27.1926 69.2015 27.3721 69.5081C27.5517 69.8148 27.4485 70.2088 27.1416 70.3882C26.8347 70.5676 26.4404 70.4645 26.2608 70.1578C26.0812 69.8512 26.1844 69.4572 26.4913 69.2778Z" fill="#512E84"/>
<path d="M28.4249 72.3947C28.7088 72.1809 29.1125 72.2376 29.3265 72.5213C29.5405 72.805 29.4837 73.2083 29.1998 73.4221C28.9158 73.6359 28.5121 73.5792 28.2982 73.2955C28.0842 73.0118 28.1409 72.6085 28.4249 72.3947Z" fill="#512E84"/>
<path d="M30.7248 75.2558C30.982 75.0105 31.3895 75.02 31.635 75.277C31.8805 75.5339 31.871 75.9411 31.6138 76.1864C31.3566 76.4317 30.9491 76.4222 30.7036 76.1652C30.4581 75.9082 30.4675 75.5011 30.7248 75.2558Z" fill="#512E84"/>
<path d="M33.3452 77.8299C33.5722 77.5564 33.9781 77.5186 34.2518 77.7453C34.5255 77.9721 34.5634 78.3776 34.3364 78.6511C34.1094 78.9245 33.7036 78.9624 33.4299 78.7356C33.1562 78.5089 33.1183 78.1033 33.3452 77.8299Z" fill="#512E84"/>
<path d="M36.2509 80.0822C36.4445 79.7842 36.8432 79.6995 37.1414 79.893C37.4396 80.0865 37.5244 80.4849 37.3307 80.7828C37.1371 81.0807 36.7384 81.1654 36.4402 80.9719C36.142 80.7785 36.0572 80.3801 36.2509 80.0822Z" fill="#512E84"/>
<path d="M39.4024 81.9822C39.5601 81.6638 39.9463 81.5335 40.265 81.691C40.5836 81.8486 40.7141 82.2345 40.5564 82.5528C40.3986 82.8712 40.0125 83.0016 39.6938 82.844C39.3751 82.6864 39.2447 82.3006 39.4024 81.9822Z" fill="#512E84"/>
<path d="M42.7571 83.5043C42.8768 83.1697 43.2452 82.9955 43.5801 83.115C43.9149 83.2346 44.0893 83.6027 43.9696 83.9372C43.85 84.2717 43.4815 84.446 43.1467 84.3264C42.8119 84.2069 42.6375 83.8388 42.7571 83.5043Z" fill="#512E84"/>
<path d="M46.2698 84.6277C46.3498 84.2816 46.6955 84.0658 47.0419 84.1457C47.3884 84.2256 47.6044 84.571 47.5244 84.9171C47.4444 85.2633 47.0987 85.4791 46.7523 85.3992C46.4058 85.3193 46.1898 84.9739 46.2698 84.6277Z" fill="#512E84"/>
<path d="M49.8928 85.3375C49.932 84.9844 50.2503 84.73 50.6037 84.7692C50.9571 84.8083 51.2118 85.1263 51.1726 85.4794C51.1333 85.8325 50.8151 86.0869 50.4617 86.0478C50.1083 86.0086 49.8536 85.6906 49.8928 85.3375Z" fill="#512E84"/>
<path d="M53.5772 85.6239C53.5752 85.2687 53.8617 84.979 54.2173 84.977C54.5728 84.9749 54.8627 85.2612 54.8648 85.6164C54.8669 85.9717 54.5803 86.2613 54.2248 86.2634C53.8692 86.2655 53.5793 85.9792 53.5772 85.6239Z" fill="#512E84"/>
<path d="M57.2732 85.4831C57.2299 85.1305 57.4808 84.8096 57.8337 84.7663C58.1866 84.723 58.5079 84.9737 58.5512 85.3263C58.5945 85.6789 58.3436 85.9999 57.9907 86.0432C57.6377 86.0865 57.3165 85.8357 57.2732 85.4831Z" fill="#512E84"/>
<path d="M60.9307 84.917C60.8467 84.5718 61.0587 84.224 61.4042 84.14C61.7497 84.0561 62.0979 84.2679 62.1819 84.6131C62.2659 84.9583 62.0539 85.3061 61.7084 85.3901C61.3629 85.474 61.0148 85.2622 60.9307 84.917Z" fill="#512E84"/>
<path d="M64.5004 83.9333C64.3769 83.6001 64.547 83.23 64.8804 83.1066C65.2138 82.9832 65.5842 83.1531 65.7078 83.4862C65.8313 83.8193 65.6612 84.1894 65.3278 84.3129C64.9944 84.4363 64.624 84.2664 64.5004 83.9333Z" fill="#512E84"/>
<path d="M67.9339 82.5452C67.7725 82.2286 67.8985 81.8413 68.2153 81.68C68.5321 81.5187 68.9198 81.6446 69.0812 81.9611C69.2426 82.2776 69.1166 82.665 68.7998 82.8263C68.483 82.9875 68.0953 82.8617 67.9339 82.5452Z" fill="#512E84"/>
<path d="M71.1408 80.7572C70.9437 80.4615 71.0238 80.0622 71.3197 79.8652C71.6157 79.6683 72.0154 79.7483 72.2125 80.044C72.4096 80.3397 72.3295 80.739 72.0335 80.9359C71.7376 81.1329 71.3379 81.0528 71.1408 80.7572Z" fill="#512E84"/>
<path d="M74.1218 78.6078C73.8916 78.337 73.9248 77.9311 74.1958 77.7011C74.4669 77.4712 74.8732 77.5044 75.1033 77.7752C75.3334 78.046 75.3003 78.4519 75.0292 78.6818C74.7582 78.9117 74.3519 78.8786 74.1218 78.6078Z" fill="#512E84"/>
<path d="M76.8364 76.1261C76.5764 75.8838 76.5622 75.4768 76.8047 75.217C77.0471 74.9571 77.4545 74.9429 77.7146 75.1852C77.9746 75.4275 77.9889 75.8345 77.7464 76.0943C77.5039 76.3541 77.0965 76.3683 76.8364 76.1261Z" fill="#512E84"/>
<path d="M79.2481 73.3456C78.9617 73.1351 78.9003 72.7325 79.1109 72.4463C79.3216 72.1601 79.7246 72.0988 80.011 72.3092C80.2974 72.5197 80.3589 72.9223 80.1482 73.2085C79.9375 73.4947 79.5346 73.5561 79.2481 73.3456Z" fill="#512E84"/>
<path d="M81.3242 70.3039C81.0153 70.1281 80.9075 69.7353 81.0835 69.4266C81.2595 69.118 81.6526 69.0103 81.9615 69.1861C82.2705 69.3619 82.3783 69.7547 82.2023 70.0634C82.0263 70.3721 81.6332 70.4797 81.3242 70.3039Z" fill="#512E84"/>
<path d="M83.0367 67.0422C82.7094 66.9034 82.5567 66.5258 82.6956 66.1988C82.8345 65.8718 83.2125 65.7192 83.5398 65.858C83.8671 65.9969 84.0198 66.3745 83.8808 66.7015C83.7419 67.0285 83.364 67.181 83.0367 67.0422Z" fill="#512E84"/>
<path d="M84.3623 63.6046C84.0211 63.5047 83.8255 63.1474 83.9255 62.8065C84.0255 62.4656 84.3832 62.2702 84.7244 62.3701C85.0656 62.47 85.2611 62.8273 85.1612 63.1683C85.0612 63.5092 84.7035 63.7045 84.3623 63.6046Z" fill="#512E84"/>
<path d="M85.2831 60.0376C84.9326 59.9779 84.6969 59.6457 84.7566 59.2955C84.8163 58.9453 85.1488 58.7097 85.4993 58.7694C85.8498 58.829 86.0856 59.1613 86.0259 59.5115C85.9662 59.8617 85.6336 60.0972 85.2831 60.0376Z" fill="#512E84"/>
<path d="M85.7868 56.3893C85.4317 56.3707 85.1589 56.068 85.1775 55.7133C85.1961 55.3585 85.4991 55.086 85.8541 55.1046C86.2092 55.1232 86.482 55.4259 86.4634 55.7806C86.4448 56.1354 86.1418 56.4079 85.7868 56.3893Z" fill="#512E84"/>
<path d="M85.8664 52.7092C85.5116 52.7319 85.2055 52.4629 85.1827 52.1084C85.16 51.7539 85.4292 51.4481 85.7841 51.4253C86.1389 51.4026 86.445 51.6716 86.4677 52.0261C86.4905 52.3806 86.2212 52.6864 85.8664 52.7092Z" fill="#512E84"/>
<path d="M85.5209 49.0469C85.1711 49.1106 84.8359 48.879 84.7721 48.5295C84.7083 48.18 84.9402 47.8451 85.29 47.7813C85.6397 47.7176 85.975 47.9493 86.0388 48.2987C86.1026 48.6482 85.8707 48.9832 85.5209 49.0469Z" fill="#512E84"/>
<path d="M84.755 45.4521C84.415 45.556 84.0551 45.3648 83.9511 45.0251C83.8472 44.6853 84.0385 44.3258 84.3786 44.2219C84.7186 44.118 85.0785 44.3092 85.1825 44.6489C85.2864 44.9887 85.0951 45.3483 84.755 45.4521Z" fill="#512E84"/>
<path d="M83.5791 41.9734C83.2534 42.116 82.8737 41.9678 82.731 41.6424C82.5882 41.3171 82.7365 40.9377 83.0622 40.7951C83.3878 40.6525 83.7676 40.8007 83.9103 41.126C84.053 41.4514 83.9047 41.8308 83.5791 41.9734Z" fill="#512E84"/>
<path d="M81.9869 38.6505C81.68 38.8299 81.2856 38.7268 81.1061 38.4202C80.9265 38.1136 81.0297 37.7196 81.3366 37.5402C81.6435 37.3608 82.0378 37.4639 82.2174 37.7705C82.397 38.0771 82.2938 38.4711 81.9869 38.6505Z" fill="#512E84"/>
<path d="M80 35.5286C79.7161 35.7423 79.3124 35.6857 79.0984 35.402C78.8844 35.1182 78.9412 34.7149 79.2251 34.5011C79.5091 34.2874 79.9128 34.344 80.1268 34.6277C80.3407 34.9115 80.284 35.3148 80 35.5286Z" fill="#512E84"/>
<path d="M77.6674 32.6568C77.4102 32.9021 77.0027 32.8926 76.7572 32.6357C76.5117 32.3787 76.5212 31.9715 76.7784 31.7262C77.0356 31.481 77.4431 31.4904 77.6886 31.7474C77.9341 32.0044 77.9246 32.4115 77.6674 32.6568Z" fill="#512E84"/>
<path d="M75.0446 30.0619C74.8176 30.3354 74.4117 30.3733 74.138 30.1465C73.8643 29.9197 73.8264 29.5142 74.0534 29.2408C74.2804 28.9673 74.6862 28.9295 74.9599 29.1562C75.2337 29.383 75.2715 29.7885 75.0446 30.0619Z" fill="#512E84"/>
<path d="M72.1755 27.7747C71.9819 28.0726 71.5831 28.1573 71.2849 27.9638C70.9867 27.7703 70.902 27.372 71.0956 27.074C71.2893 26.7761 71.688 26.6914 71.9862 26.8849C72.2844 27.0784 72.3692 27.4768 72.1755 27.7747Z" fill="#512E84"/>
<path d="M69.0055 25.8736C68.8477 26.192 68.4615 26.3223 68.1429 26.1647C67.8242 26.0071 67.6937 25.6213 67.8515 25.3029C68.0092 24.9845 68.3954 24.8542 68.7141 25.0118C69.0327 25.1694 69.1632 25.5552 69.0055 25.8736Z" fill="#512E84"/>
<path d="M65.6384 24.3533C65.5187 24.6878 65.1503 24.8621 64.8154 24.7425C64.4806 24.623 64.3062 24.2549 64.4259 23.9203C64.5455 23.5858 64.914 23.4116 65.2488 23.5311C65.5836 23.6507 65.758 24.0188 65.6384 24.3533Z" fill="#512E84"/>
<path d="M62.1197 23.2344C62.0397 23.5805 61.694 23.7963 61.3476 23.7164C61.0011 23.6365 60.7851 23.2911 60.8651 22.945C60.9451 22.5988 61.2908 22.383 61.6372 22.4629C61.9837 22.5428 62.1997 22.8882 62.1197 23.2344Z" fill="#512E84"/>
<path d="M58.4971 22.5319C58.4578 22.885 58.1396 23.1395 57.7862 23.1003C57.4328 23.0611 57.1781 22.7431 57.2173 22.39C57.2565 22.037 57.5748 21.7825 57.9282 21.8217C58.2816 21.8609 58.5363 22.1789 58.4971 22.5319Z" fill="#512E84"/>
<path d="M54.8195 22.2555C54.8215 22.6108 54.535 22.9004 54.1794 22.9025C53.8239 22.9045 53.534 22.6182 53.5319 22.263C53.5298 21.9078 53.8164 21.6181 54.1719 21.616C54.5275 21.614 54.8174 21.9003 54.8195 22.2555Z" fill="#512E84"/>
<path d="M51.1366 22.4088C51.18 22.7614 50.929 23.0823 50.5761 23.1256C50.2232 23.1689 49.902 22.9182 49.8586 22.5656C49.8153 22.213 50.0663 21.8921 50.4192 21.8488C50.7721 21.8055 51.0933 22.0562 51.1366 22.4088Z" fill="#512E84"/>
<path d="M47.4984 22.9898C47.5824 23.335 47.3704 23.6828 47.0249 23.7668C46.6794 23.8507 46.3312 23.6389 46.2472 23.2937C46.1632 22.9485 46.3752 22.6007 46.7207 22.5167C47.0662 22.4328 47.4144 22.6446 47.4984 22.9898Z" fill="#512E84"/>
<path d="M43.9539 23.9905C44.0774 24.3236 43.9073 24.6938 43.5739 24.8172C43.2405 24.9406 42.8701 24.7707 42.7465 24.4376C42.6229 24.1045 42.7931 23.7343 43.1265 23.6109C43.4599 23.4875 43.8303 23.6574 43.9539 23.9905Z" fill="#512E84"/>
<path d="M40.5511 25.3976C40.7125 25.7141 40.5865 26.1014 40.2697 26.2627C39.9529 26.424 39.5652 26.2981 39.4038 25.9816C39.2424 25.6651 39.3683 25.2778 39.6851 25.1165C40.002 24.9552 40.3896 25.0811 40.5511 25.3976Z" fill="#512E84"/>
<path d="M34.1176 25.0995C34.3076 25.3607 34.2497 25.7264 33.9881 25.9163C33.7266 26.1061 33.3606 26.0482 33.1706 25.7869C32.9806 25.5256 33.0386 25.1599 33.3001 24.9701C33.5616 24.7803 33.9276 24.8382 34.1176 25.0995Z" fill="#512E84"/>
<path d="M31.1943 27.3625C31.4105 27.6025 31.3911 27.9723 31.1509 28.1884C30.9107 28.4044 30.5406 28.3851 30.3244 28.1451C30.1081 27.9051 30.1275 27.5353 30.3677 27.3192C30.6079 27.1031 30.978 27.1225 31.1943 27.3625Z" fill="#512E84"/>
<path d="M28.5255 29.9178C28.7657 30.1339 28.7851 30.5036 28.5688 30.7436C28.3525 30.9836 27.9824 31.003 27.7422 30.7869C27.502 30.5708 27.4826 30.201 27.6989 29.961C27.9152 29.721 28.2853 29.7017 28.5255 29.9178Z" fill="#512E84"/>
<path d="M26.1405 32.7372C26.402 32.9271 26.46 33.2927 26.27 33.554C26.08 33.8153 25.714 33.8732 25.4525 33.6834C25.191 33.4936 25.133 33.1279 25.323 32.8666C25.513 32.6053 25.879 32.5474 26.1405 32.7372Z" fill="#512E84"/>
<path d="M24.0655 35.79C24.3455 35.9515 24.4414 36.3091 24.2798 36.5888C24.1182 36.8685 23.7602 36.9643 23.4803 36.8028C23.2003 36.6414 23.1044 36.2837 23.266 36.004C23.4277 35.7244 23.7856 35.6285 24.0655 35.79Z" fill="#512E84"/>
<path d="M22.3233 39.0427C22.6186 39.174 22.7514 39.5197 22.6199 39.8147C22.4884 40.1097 22.1425 40.2424 21.8472 40.1111C21.5519 39.9797 21.4191 39.6341 21.5505 39.339C21.682 39.044 22.028 38.9113 22.3233 39.0427Z" fill="#512E84"/>
<path d="M20.9328 42.4596C21.2402 42.5594 21.4085 42.8892 21.3086 43.1964C21.2087 43.5035 20.8785 43.6716 20.5711 43.5718C20.2637 43.472 20.0954 43.1421 20.1953 42.835C20.2952 42.5278 20.6254 42.3598 20.9328 42.4596Z" fill="#512E84"/>
<path d="M19.9093 46.0032C20.2255 46.0704 20.4273 46.3809 20.3601 46.6968C20.2929 47.0127 19.9821 47.2143 19.666 47.1472C19.3498 47.0801 19.148 46.7695 19.2152 46.4536C19.2824 46.1378 19.5932 45.9361 19.9093 46.0032Z" fill="#512E84"/>
<path d="M19.2641 49.6349C19.5856 49.6687 19.8188 49.9564 19.785 50.2776C19.7512 50.5988 19.4632 50.8318 19.1418 50.798C18.8203 50.7643 18.5871 50.4765 18.6209 50.1553C18.6547 49.8342 18.9427 49.6012 19.2641 49.6349Z" fill="#512E84"/>
<path d="M19.0042 53.3148C19.3275 53.3148 19.5895 53.5766 19.5895 53.8995C19.5895 54.2225 19.3275 54.4843 19.0042 54.4843C18.681 54.4843 18.4189 54.2225 18.4189 53.8995C18.4189 53.5766 18.681 53.3148 19.0042 53.3148Z" fill="#512E84"/>
<path d="M19.1325 57.0025C19.4539 56.9687 19.7419 57.2017 19.7757 57.5229C19.8095 57.8441 19.5763 58.1318 19.2548 58.1656C18.9334 58.1993 18.6454 57.9663 18.6116 57.6452C18.5778 57.324 18.811 57.0362 19.1325 57.0025Z" fill="#512E84"/>
<path d="M19.6475 60.6577C19.9636 60.5905 20.2744 60.7922 20.3416 61.1081C20.4088 61.424 20.207 61.7345 19.8908 61.8016C19.5747 61.8688 19.2639 61.6671 19.1967 61.3512C19.1294 61.0353 19.3313 60.7248 19.6475 60.6577Z" fill="#512E84"/>
<path d="M20.5436 64.2403C20.851 64.1405 21.1812 64.3086 21.2811 64.6157C21.3809 64.9228 21.2127 65.2527 20.9053 65.3525C20.5979 65.4523 20.2677 65.2842 20.1678 64.9771C20.0679 64.6699 20.2361 64.3401 20.5436 64.2403Z" fill="#512E84"/>
<path d="M21.811 67.711C22.1063 67.5797 22.4522 67.7124 22.5837 68.0074C22.7152 68.3024 22.5824 68.6481 22.2871 68.7794C21.9918 68.9108 21.6458 68.7781 21.5143 68.4831C21.3829 68.188 21.5157 67.8424 21.811 67.711Z" fill="#512E84"/>
<path d="M23.4358 71.0319C23.7157 70.8705 24.0736 70.9663 24.2353 71.246C24.3969 71.5257 24.301 71.8833 24.021 72.0448C23.7411 72.2062 23.3832 72.1104 23.2215 71.8307C23.0599 71.551 23.1558 71.1934 23.4358 71.0319Z" fill="#512E84"/>
<path d="M25.3747 74.1598C25.6362 73.97 26.0023 74.0279 26.1923 74.2892C26.3823 74.5504 26.3243 74.9161 26.0628 75.1059C25.8013 75.2958 25.4353 75.2378 25.2453 74.9766C25.0553 74.7153 25.1132 74.3496 25.3747 74.1598Z" fill="#512E84"/>
<path d="M27.6321 77.0671C27.8723 76.851 28.2424 76.8704 28.4587 77.1104C28.675 77.3504 28.6556 77.7202 28.4153 77.9363C28.1751 78.1523 27.8051 78.133 27.5888 77.893C27.3725 77.653 27.3919 77.2832 27.6321 77.0671Z" fill="#512E84"/>
<path d="M30.183 79.7221C30.3993 79.4821 30.7694 79.4628 31.0096 79.6788C31.2498 79.8949 31.2692 80.2647 31.0529 80.5047C30.8366 80.7447 30.4666 80.7641 30.2264 80.548C29.9861 80.3319 29.9668 79.9621 30.183 79.7221Z" fill="#512E84"/>
<path d="M32.9997 82.0956C33.1897 81.8344 33.5557 81.7765 33.8172 81.9663C34.0787 82.1561 34.1367 82.5218 33.9467 82.7831C33.7567 83.0443 33.3907 83.1023 33.1292 82.9124C32.8677 82.7226 32.8097 82.3569 32.9997 82.0956Z" fill="#512E84"/>
<path d="M36.0512 84.1617C36.2128 83.882 36.5707 83.7862 36.8507 83.9477C37.1306 84.1091 37.2265 84.4668 37.0649 84.7465C36.9033 85.0261 36.5453 85.122 36.2654 84.9605C35.9854 84.799 35.8895 84.4414 36.0512 84.1617Z" fill="#512E84"/>
<path d="M39.304 85.8977C39.4355 85.6026 39.7814 85.4699 40.0767 85.6013C40.372 85.7327 40.5048 86.0783 40.3734 86.3733C40.2419 86.6684 39.8959 86.801 39.6006 86.6697C39.3053 86.5383 39.1725 86.1927 39.304 85.8977Z" fill="#512E84"/>
<path d="M42.7226 87.2845C42.8225 86.9774 43.1527 86.8093 43.4601 86.9091C43.7675 87.0089 43.9358 87.3388 43.8359 87.6459C43.736 87.953 43.4058 88.1211 43.0984 88.0213C42.791 87.9215 42.6227 87.5917 42.7226 87.2845Z" fill="#512E84"/>
<path d="M46.2695 88.307C46.3367 87.9911 46.6475 87.7895 46.9637 87.8567C47.2798 87.9238 47.4817 88.2343 47.4145 88.5502C47.3473 88.8661 47.0365 89.0677 46.7203 89.0006C46.4041 88.9334 46.2023 88.6229 46.2695 88.307Z" fill="#512E84"/>
<path d="M49.9058 88.9541C49.9396 88.6329 50.2276 88.3999 50.5491 88.4336C50.8705 88.4674 51.1037 88.7551 51.0699 89.0763C51.0362 89.3975 50.7482 89.6305 50.4267 89.5967C50.1052 89.563 49.872 89.2752 49.9058 88.9541Z" fill="#512E84"/>
<path d="M53.5917 89.2185C53.5917 88.8955 53.8538 88.6337 54.177 88.6337C54.5002 88.6337 54.7623 88.8955 54.7623 89.2185C54.7623 89.5414 54.5002 89.8032 54.177 89.8032C53.8538 89.8032 53.5917 89.5414 53.5917 89.2185Z" fill="#512E84"/>
<path d="M57.2868 89.0974C57.2531 88.7762 57.4863 88.4885 57.8077 88.4547C58.1292 88.421 58.4172 88.654 58.451 88.9752C58.4848 89.2963 58.2516 89.5841 57.9301 89.6178C57.6086 89.6516 57.3206 89.4186 57.2868 89.0974Z" fill="#512E84"/>
<path d="M60.9507 88.5921C60.8835 88.2762 61.0853 87.9657 61.4015 87.8986C61.7177 87.8314 62.0284 88.0331 62.0957 88.349C62.1629 88.6649 61.961 88.9754 61.6448 89.0425C61.3287 89.1097 61.0179 88.908 60.9507 88.5921Z" fill="#512E84"/>
<path d="M64.5431 87.7082C64.4432 87.4011 64.6114 87.0712 64.9189 86.9714C65.2263 86.8716 65.5565 87.0397 65.6564 87.3468C65.7562 87.654 65.588 87.9839 65.2806 88.0837C64.9732 88.1835 64.643 88.0154 64.5431 87.7082Z" fill="#512E84"/>
<path d="M68.0247 86.4554C67.8933 86.1603 68.0261 85.8147 68.3214 85.6833C68.6167 85.552 68.9626 85.6847 69.0941 85.9797C69.2256 86.2747 69.0928 86.6204 68.7975 86.7517C68.5022 86.8831 68.1562 86.7504 68.0247 86.4554Z" fill="#512E84"/>
<path d="M71.3575 84.8473C71.1958 84.5676 71.2918 84.21 71.5717 84.0485C71.8516 83.8871 72.2096 83.9829 72.3712 84.2626C72.5328 84.5422 72.4369 84.8999 72.157 85.0613C71.877 85.2228 71.5191 85.127 71.3575 84.8473Z" fill="#512E84"/>
<path d="M74.4793 82.8948C74.2893 82.6335 74.3473 82.2679 74.6088 82.078C74.8703 81.8882 75.2363 81.9461 75.4263 82.2074C75.6163 82.4687 75.5584 82.8344 75.2968 83.0242C75.0353 83.214 74.6693 83.1561 74.4793 82.8948Z" fill="#512E84"/>
<path d="M77.3815 80.6261C77.1653 80.3861 77.1847 80.0164 77.4249 79.8003C77.6651 79.5842 78.0351 79.6036 78.2514 79.8436C78.4677 80.0835 78.4483 80.4533 78.2081 80.6694C77.9679 80.8855 77.5978 80.8661 77.3815 80.6261Z" fill="#512E84"/>
<path d="M80.0323 78.066C79.7921 77.8499 79.7727 77.4802 79.989 77.2402C80.2053 77.0002 80.5754 76.9808 80.8156 77.1969C81.0558 77.413 81.0752 77.7828 80.8589 78.0228C80.6426 78.2628 80.2725 78.2821 80.0323 78.066Z" fill="#512E84"/>
<path d="M82.4026 75.2426C82.1411 75.0528 82.0832 74.6871 82.2732 74.4259C82.4632 74.1646 82.8292 74.1067 83.0907 74.2965C83.3522 74.4863 83.4101 74.852 83.2202 75.1133C83.0302 75.3746 82.6641 75.4325 82.4026 75.2426Z" fill="#512E84"/>
<path d="M84.4665 72.1869C84.1866 72.0254 84.0906 71.6678 84.2523 71.3881C84.4139 71.1084 84.7718 71.0126 85.0518 71.1741C85.3317 71.3355 85.4276 71.6932 85.266 71.9729C85.1044 72.2525 84.7464 72.3484 84.4665 72.1869Z" fill="#512E84"/>
<path d="M86.2013 68.9322C85.906 68.8009 85.7732 68.4552 85.9046 68.1602C86.0361 67.8652 86.3821 67.7325 86.6774 67.8638C86.9727 67.9952 87.1055 68.3408 86.974 68.6359C86.8425 68.9309 86.4966 69.0636 86.2013 68.9322Z" fill="#512E84"/>
<path d="M87.588 65.5143C87.2806 65.4145 87.1123 65.0847 87.2122 64.7775C87.3121 64.4704 87.6423 64.3023 87.9497 64.4021C88.2571 64.5019 88.4254 64.8318 88.3255 65.1389C88.2256 65.446 87.8954 65.6141 87.588 65.5143Z" fill="#512E84"/>
<path d="M88.6114 61.9706C88.2953 61.9035 88.0934 61.593 88.1606 61.2771C88.2278 60.9612 88.5386 60.7596 88.8548 60.8267C89.171 60.8938 89.3728 61.2044 89.3056 61.5203C89.2384 61.8361 88.9276 62.0378 88.6114 61.9706Z" fill="#512E84"/>
<path d="M89.2604 58.34C88.939 58.3062 88.7057 58.0185 88.7395 57.6973C88.7733 57.3761 89.0613 57.1431 89.3828 57.1769C89.7043 57.2107 89.9375 57.4984 89.9037 57.8196C89.8699 58.1408 89.5819 58.3738 89.2604 58.34Z" fill="#512E84"/>
<path d="M89.5278 54.6621C89.2046 54.6621 88.9425 54.4003 88.9425 54.0774C88.9425 53.7544 89.2046 53.4926 89.5278 53.4926C89.8511 53.4926 90.1131 53.7544 90.1131 54.0774C90.1131 54.4003 89.8511 54.6621 89.5278 54.6621Z" fill="#512E84"/>
<path d="M89.4107 50.9774C89.0892 51.0112 88.8012 50.7782 88.7674 50.457C88.7336 50.1358 88.9669 49.8481 89.2883 49.8143C89.6098 49.7805 89.8978 50.0135 89.9316 50.3347C89.9654 50.6559 89.7321 50.9436 89.4107 50.9774Z" fill="#512E84"/>
<path d="M88.9103 47.3261C88.5942 47.3933 88.2834 47.1916 88.2162 46.8757C88.149 46.5598 88.3508 46.2493 88.667 46.1822C88.9831 46.115 89.2939 46.3167 89.3611 46.6326C89.4283 46.9485 89.2265 47.259 88.9103 47.3261Z" fill="#512E84"/>
<path d="M88.0322 43.7483C87.7248 43.8481 87.3946 43.6801 87.2947 43.3729C87.1949 43.0658 87.3631 42.7359 87.6705 42.6361C87.9779 42.5363 88.3081 42.7044 88.408 43.0115C88.5079 43.3187 88.3397 43.6485 88.0322 43.7483Z" fill="#512E84"/>
<path d="M86.786 40.2832C86.4907 40.4146 86.1447 40.2819 86.0133 39.9869C85.8818 39.6919 86.0146 39.3462 86.3099 39.2149C86.6052 39.0835 86.9511 39.2162 87.0826 39.5112C87.2141 39.8062 87.0813 40.1519 86.786 40.2832Z" fill="#512E84"/>
<path d="M85.1853 36.9688C84.9054 37.1303 84.5474 37.0344 84.3858 36.7548C84.2242 36.4751 84.3201 36.1175 84.6 35.956C84.8799 35.7945 85.2379 35.8903 85.3995 36.17C85.5611 36.4497 85.4652 36.8073 85.1853 36.9688Z" fill="#512E84"/>
<path d="M83.2222 33.8345C82.9607 34.0243 82.5947 33.9664 82.4047 33.7051C82.2147 33.4439 82.2727 33.0782 82.5342 32.8883C82.7957 32.6985 83.1617 32.7564 83.3517 33.0177C83.5417 33.279 83.4837 33.6447 83.2222 33.8345Z" fill="#512E84"/>
<path d="M80.9437 30.9215C80.7035 31.1376 80.3334 31.1182 80.1171 30.8782C79.9008 30.6382 79.9202 30.2685 80.1604 30.0524C80.4007 29.8363 80.7707 29.8557 80.987 30.0956C81.2033 30.3356 81.1839 30.7054 80.9437 30.9215Z" fill="#512E84"/>
<path d="M78.3747 28.2617C78.1584 28.5017 77.7884 28.5211 77.5482 28.305C77.308 28.0889 77.2886 27.7191 77.5048 27.4791C77.7211 27.2391 78.0912 27.2198 78.3314 27.4359C78.5716 27.652 78.591 28.0217 78.3747 28.2617Z" fill="#512E84"/>
<path d="M75.5435 25.8842C75.3535 26.1455 74.9874 26.2034 74.7259 26.0136C74.4644 25.8238 74.4065 25.4581 74.5965 25.1968C74.7864 24.9355 75.1525 24.8776 75.414 25.0675C75.6755 25.2573 75.7335 25.623 75.5435 25.8842Z" fill="#512E84"/>
<path d="M72.4809 23.8152C72.3193 24.0949 71.9613 24.1907 71.6814 24.0292C71.4014 23.8678 71.3055 23.5101 71.4671 23.2305C71.6288 22.9508 71.9867 22.8549 72.2666 23.0164C72.5466 23.1779 72.6425 23.5355 72.4809 23.8152Z" fill="#512E84"/>
<path d="M69.2205 22.0772C69.0891 22.3723 68.7431 22.5049 68.4478 22.3736C68.1525 22.2422 68.0197 21.8966 68.1512 21.6016C68.2827 21.3065 68.6286 21.1738 68.9239 21.3052C69.2192 21.4366 69.352 21.7822 69.2205 22.0772Z" fill="#512E84"/>
<path d="M65.7982 20.6894C65.6983 20.9965 65.3681 21.1646 65.0607 21.0648C64.7533 20.965 64.585 20.6351 64.6849 20.328C64.7848 20.0209 65.115 19.8528 65.4224 19.9526C65.7298 20.0524 65.8981 20.3822 65.7982 20.6894Z" fill="#512E84"/>
<path d="M62.2513 19.6669C62.1841 19.9827 61.8733 20.1844 61.5571 20.1173C61.2409 20.0501 61.0391 19.7396 61.1063 19.4237C61.1735 19.1078 61.4843 18.9062 61.8005 18.9733C62.1167 19.0405 62.3185 19.351 62.2513 19.6669Z" fill="#512E84"/>
<path d="M58.6187 19.0208C58.585 19.342 58.297 19.575 57.9755 19.5413C57.654 19.5075 57.4208 19.2198 57.4546 18.8986C57.4884 18.5774 57.7764 18.3444 58.0979 18.3782C58.4193 18.4119 58.6525 18.6997 58.6187 19.0208Z" fill="#512E84"/>
<path d="M54.9403 18.7584C54.9403 19.0814 54.6783 19.3432 54.355 19.3432C54.0318 19.3432 53.7698 19.0814 53.7698 18.7584C53.7698 18.4355 54.0318 18.1737 54.355 18.1737C54.6783 18.1737 54.9403 18.4355 54.9403 18.7584Z" fill="#512E84"/>
<path d="M51.2563 18.8825C51.2901 19.2037 51.0569 19.4914 50.7354 19.5252C50.4139 19.5589 50.126 19.3259 50.0922 19.0047C50.0584 18.6836 50.2916 18.3958 50.6131 18.3621C50.9345 18.3283 51.2225 18.5613 51.2563 18.8825Z" fill="#512E84"/>
<path d="M47.6071 19.3917C47.6743 19.7076 47.4725 20.0181 47.1563 20.0852C46.8401 20.1524 46.5294 19.9507 46.4621 19.6348C46.3949 19.3189 46.5968 19.0084 46.913 18.9413C47.2291 18.8741 47.5399 19.0758 47.6071 19.3917Z" fill="#512E84"/>
<path d="M44.0327 20.2804C44.1326 20.5875 43.9643 20.9174 43.6569 21.0172C43.3495 21.117 43.0193 20.9489 42.9194 20.6418C42.8195 20.3346 42.9878 20.0048 43.2952 19.905C43.6026 19.8052 43.9328 19.9732 44.0327 20.2804Z" fill="#512E84"/>
<path d="M40.5722 21.5389C40.7037 21.8339 40.5709 22.1796 40.2756 22.3109C39.9803 22.4423 39.6343 22.3096 39.5029 22.0146C39.3714 21.7196 39.5042 21.3739 39.7995 21.2425C40.0948 21.1112 40.4407 21.2439 40.5722 21.5389Z" fill="#512E84"/>
<path d="M37.2636 23.1534C37.4252 23.4331 37.3293 23.7907 37.0493 23.9522C36.7694 24.1137 36.4115 24.0179 36.2498 23.7382C36.0882 23.4585 36.1841 23.1009 36.4641 22.9394C36.744 22.7779 37.102 22.8737 37.2636 23.1534Z" fill="#512E84"/>
<path d="M30.667 23.2856C30.848 23.5132 30.8099 23.8442 30.5821 24.025C30.3543 24.2058 30.023 24.1678 29.842 23.9402C29.6611 23.7126 29.6991 23.3815 29.927 23.2007C30.1548 23.02 30.4861 23.058 30.667 23.2856Z" fill="#512E84"/>
<path d="M27.8415 25.6668C28.0432 25.8762 28.0369 26.2094 27.8273 26.4109C27.6177 26.6125 27.2842 26.6062 27.0825 26.3968C26.8807 26.1874 26.8871 25.8542 27.0967 25.6526C27.3063 25.4511 27.6397 25.4574 27.8415 25.6668Z" fill="#512E84"/>
<path d="M25.2567 28.3049C25.4775 28.4942 25.5028 28.8264 25.3134 29.047C25.1239 29.2676 24.7914 29.2929 24.5706 29.1036C24.3498 28.9143 24.3245 28.5821 24.5139 28.3615C24.7034 28.141 25.0359 28.1156 25.2567 28.3049Z" fill="#512E84"/>
<path d="M22.9362 31.176C23.1739 31.3435 23.2308 31.6718 23.0632 31.9094C22.8956 32.1469 22.5669 32.2037 22.3292 32.0363C22.0914 31.8688 22.0345 31.5405 22.2021 31.3029C22.3697 31.0653 22.6984 31.0085 22.9362 31.176Z" fill="#512E84"/>
<path d="M20.9008 34.2541C21.1535 34.3982 21.2413 34.7197 21.0971 34.9721C20.9528 35.2245 20.6311 35.3122 20.3784 35.1681C20.1258 35.024 20.038 34.7025 20.1822 34.4501C20.3265 34.1977 20.6482 34.11 20.9008 34.2541Z" fill="#512E84"/>
<path d="M19.1692 37.5113C19.4344 37.6308 19.5524 37.9424 19.4328 38.2074C19.3132 38.4723 19.0013 38.5903 18.7361 38.4708C18.4709 38.3513 18.3529 38.0397 18.4725 37.7747C18.5921 37.5097 18.904 37.3918 19.1692 37.5113Z" fill="#512E84"/>
<path d="M17.7569 40.9181C18.0323 41.0119 18.1794 41.3109 18.0856 41.586C17.9917 41.8611 17.6924 42.0082 17.4171 41.9144C17.1417 41.8207 16.9945 41.5216 17.0884 41.2465C17.1822 40.9714 17.4815 40.8244 17.7569 40.9181Z" fill="#512E84"/>
<path d="M16.6767 44.4437C16.9598 44.5109 17.1347 44.7946 17.0675 45.0774C17.0002 45.3602 16.7163 45.535 16.4332 45.4678C16.1502 45.4006 15.9752 45.1169 16.0425 44.8341C16.1097 44.5513 16.3937 44.3766 16.6767 44.4437Z" fill="#512E84"/>
<path d="M15.9385 48.0562C16.2266 48.0962 16.4278 48.362 16.3877 48.6499C16.3477 48.9377 16.0817 49.1387 15.7935 49.0987C15.5054 49.0587 15.3042 48.7929 15.3443 48.505C15.3843 48.2171 15.6503 48.0162 15.9385 48.0562Z" fill="#512E84"/>
<path d="M15.5488 51.7227C15.8395 51.7352 16.065 51.9807 16.0525 52.2711C16.0401 52.5615 15.7944 52.7868 15.5037 52.7743C15.2131 52.7619 14.9875 52.5164 15 52.226C15.0125 51.9356 15.2582 51.7103 15.5488 51.7227Z" fill="#512E84"/>
<path d="M15.5113 55.4102C15.8018 55.395 16.0497 55.618 16.0649 55.9083C16.0801 56.1985 15.857 56.4461 15.5665 56.4613C15.2759 56.4766 15.0281 56.2536 15.0129 55.9633C14.9976 55.6731 15.2208 55.4255 15.5113 55.4102Z" fill="#512E84"/>
<path d="M15.8263 59.0853C16.114 59.0425 16.382 59.2409 16.4248 59.5284C16.4675 59.8159 16.2689 60.0836 15.9812 60.1264C15.6934 60.1691 15.4255 59.9707 15.3827 59.6832C15.3399 59.3957 15.5385 59.128 15.8263 59.0853Z" fill="#512E84"/>
<path d="M16.4909 62.7145C16.7732 62.6447 17.0589 62.8167 17.1288 63.0989C17.1987 63.381 17.0265 63.6664 16.7441 63.7362C16.4617 63.8061 16.1761 63.634 16.1062 63.3519C16.0362 63.0698 16.2085 62.7844 16.4909 62.7145Z" fill="#512E84"/>
<path d="M17.499 66.2652C17.7735 66.1688 18.0742 66.313 18.1707 66.5872C18.2671 66.8614 18.1228 67.1618 17.8483 67.2582C17.5739 67.3546 17.2732 67.2104 17.1767 66.9362C17.0803 66.662 17.2246 66.3615 17.499 66.2652Z" fill="#512E84"/>
<path d="M18.8417 69.705C19.1058 69.583 19.4188 69.698 19.5409 69.9618C19.663 70.2256 19.5479 70.5384 19.2839 70.6604C19.0199 70.7824 18.7068 70.6674 18.5847 70.4036C18.4626 70.1398 18.5777 69.827 18.8417 69.705Z" fill="#512E84"/>
<path d="M20.5067 73.003C20.7579 72.8564 21.0805 72.9411 21.2271 73.1922C21.3738 73.4432 21.289 73.7655 21.0378 73.912C20.7865 74.0585 20.4639 73.9738 20.3173 73.7228C20.1706 73.4718 20.2554 73.1495 20.5067 73.003Z" fill="#512E84"/>
<path d="M22.4742 76.122C22.7104 75.9523 23.0396 76.006 23.2095 76.2419C23.3793 76.4779 23.3256 76.8067 23.0894 76.9765C22.8533 77.1462 22.5241 77.0925 22.3542 76.8565C22.1843 76.6206 22.2381 76.2917 22.4742 76.122Z" fill="#512E84"/>
<path d="M24.7054 79.0477C24.9243 78.8563 25.2571 78.8785 25.4487 79.0972C25.6402 79.316 25.618 79.6485 25.3991 79.8399C25.1801 80.0312 24.8473 80.0091 24.6558 79.7903C24.4642 79.5715 24.4864 79.2391 24.7054 79.0477Z" fill="#512E84"/>
<path d="M27.2129 81.7422C27.4126 81.5309 27.746 81.5214 27.9575 81.721C28.169 81.9205 28.1785 82.2536 27.9788 82.4649C27.779 82.6762 27.4456 82.6858 27.2341 82.4862C27.0226 82.2866 27.0131 81.9535 27.2129 81.7422Z" fill="#512E84"/>
<path d="M29.9668 84.1858C30.1455 83.9565 30.4765 83.9154 30.706 84.094C30.9356 84.2725 30.9767 84.6032 30.798 84.8325C30.6193 85.0619 30.2883 85.103 30.0588 84.9244C29.8292 84.7458 29.7881 84.4152 29.9668 84.1858Z" fill="#512E84"/>
<path d="M32.9423 86.3564C33.0984 86.1111 33.424 86.0387 33.6695 86.1947C33.9149 86.3507 33.9874 86.6759 33.8313 86.9212C33.6752 87.1665 33.3496 87.2388 33.1041 87.0829C32.8586 86.9269 32.7862 86.6016 32.9423 86.3564Z" fill="#512E84"/>
<path d="M36.1124 88.2342C36.2445 87.9752 36.5617 87.8722 36.8209 88.0042C37.0801 88.1361 37.1832 88.453 37.0511 88.712C36.919 88.971 36.6018 89.074 36.3426 88.942C36.0834 88.81 35.9804 88.4931 36.1124 88.2342Z" fill="#512E84"/>
<path d="M39.4684 89.8159C39.5752 89.5455 39.8812 89.4129 40.1518 89.5196C40.4224 89.6264 40.5551 89.9321 40.4483 90.2024C40.3414 90.4728 40.0355 90.6054 39.7649 90.4986C39.4943 90.3919 39.3616 90.0862 39.4684 89.8159Z" fill="#512E84"/>
<path d="M42.9413 91.0596C43.0219 90.7803 43.3138 90.6192 43.5934 90.6998C43.8729 90.7803 44.0341 91.072 43.9535 91.3513C43.8729 91.6306 43.5809 91.7916 43.3014 91.7111C43.0219 91.6305 42.8606 91.3388 42.9413 91.0596Z" fill="#512E84"/>
<path d="M46.5182 91.968C46.5719 91.6823 46.8472 91.4942 47.1331 91.5479C47.419 91.6015 47.6073 91.8766 47.5536 92.1622C47.4999 92.4479 47.2246 92.636 46.9387 92.5823C46.6528 92.5287 46.4645 92.2536 46.5182 91.968Z" fill="#512E84"/>
<path d="M50.1668 92.5328C50.1931 92.2433 50.4492 92.03 50.739 92.0562C51.0287 92.0825 51.2423 92.3384 51.216 92.6279C51.1897 92.9173 50.9336 93.1307 50.6438 93.1045C50.3541 93.0782 50.1405 92.8223 50.1668 92.5328Z" fill="#512E84"/>
<path d="M53.854 92.749C53.8527 92.4583 54.0874 92.2216 54.3783 92.2202C54.6692 92.2188 54.9061 92.4533 54.9075 92.744C54.9089 93.0346 54.6742 93.2714 54.3833 93.2727C54.0924 93.2741 53.8554 93.0396 53.854 92.749Z" fill="#512E84"/>
<path d="M57.5465 92.6145C57.5175 92.3253 57.7286 92.0674 58.0181 92.0384C58.3075 92.0094 58.5657 92.2203 58.5947 92.5095C58.6238 92.7987 58.4127 93.0567 58.1232 93.0857C57.8337 93.1147 57.5755 92.9037 57.5465 92.6145Z" fill="#512E84"/>
<path d="M61.2108 92.1307C61.1543 91.8456 61.34 91.5687 61.6254 91.5123C61.9107 91.456 62.1878 91.6414 62.2443 91.9266C62.3007 92.2117 62.115 92.4886 61.8296 92.5449C61.5443 92.6013 61.2672 92.4158 61.2108 92.1307Z" fill="#512E84"/>
<path d="M64.8136 91.3018C64.7303 91.0233 64.8888 90.7301 65.1675 90.6469C65.4463 90.5637 65.7397 90.722 65.823 91.0005C65.9063 91.279 65.7479 91.5722 65.4691 91.6554C65.1904 91.7386 64.8969 91.5803 64.8136 91.3018Z" fill="#512E84"/>
<path d="M68.3225 90.1355C68.2131 89.8661 68.3429 89.5592 68.6125 89.4499C68.882 89.3406 69.1893 89.4703 69.2987 89.7396C69.4081 90.0089 69.2782 90.3159 69.0087 90.4252C68.7391 90.5345 68.4319 90.4048 68.3225 90.1355Z" fill="#512E84"/>
<path d="M71.7056 88.6421C71.571 88.3844 71.6711 88.0666 71.929 87.9321C72.1869 87.7977 72.5051 87.8977 72.6396 88.1554C72.7742 88.4131 72.6741 88.731 72.4162 88.8654C72.1583 88.9998 71.8401 88.8998 71.7056 88.6421Z" fill="#512E84"/>
<path d="M74.9322 86.8354C74.7737 86.5916 74.8431 86.2657 75.0871 86.1074C75.331 85.9491 75.6573 86.0184 75.8157 86.2621C75.9742 86.5059 75.9048 86.8318 75.6608 86.9901C75.4168 87.1484 75.0906 87.0792 74.9322 86.8354Z" fill="#512E84"/>
<path d="M77.9519 84.727C77.7709 84.4994 77.809 84.1684 78.0368 83.9876C78.2646 83.8069 78.5959 83.8449 78.7769 84.0725C78.9578 84.3001 78.9198 84.6311 78.6919 84.8119C78.4641 84.9926 78.1328 84.9547 77.9519 84.727Z" fill="#512E84"/>
<path d="M80.7585 82.3407C80.5568 82.1313 80.5631 81.7982 80.7727 81.5966C80.9823 81.395 81.3158 81.4014 81.5175 81.6107C81.7193 81.8201 81.7129 82.1533 81.5033 82.3549C81.2937 82.5564 80.9603 82.5501 80.7585 82.3407Z" fill="#512E84"/>
<path d="M83.3268 79.6981C83.106 79.5088 83.0806 79.1765 83.2701 78.9559C83.4595 78.7354 83.7921 78.71 84.0129 78.8993C84.2336 79.0886 84.259 79.4209 84.0695 79.6414C83.8801 79.862 83.5475 79.8873 83.3268 79.6981Z" fill="#512E84"/>
<path d="M85.6333 76.823C85.3956 76.6555 85.3387 76.3272 85.5063 76.0896C85.6739 75.852 86.0026 75.7952 86.2403 75.9627C86.4781 76.1301 86.535 76.4585 86.3674 76.696C86.1998 76.9336 85.8711 76.9904 85.6333 76.823Z" fill="#512E84"/>
<path d="M87.6574 73.7415C87.4047 73.5973 87.3169 73.2759 87.4611 73.0235C87.6054 72.7711 87.9271 72.6833 88.1798 72.8274C88.4324 72.9716 88.5202 73.293 88.376 73.5454C88.2317 73.7978 87.91 73.8856 87.6574 73.7415Z" fill="#512E84"/>
<path d="M89.3805 70.4815C89.1153 70.362 88.9973 70.0504 89.1168 69.7854C89.2364 69.5204 89.5484 69.4025 89.8136 69.522C90.0788 69.6415 90.1968 69.9531 90.0772 70.2181C89.9576 70.4831 89.6457 70.601 89.3805 70.4815Z" fill="#512E84"/>
<path d="M90.7871 67.0726C90.5118 66.9788 90.3646 66.6798 90.4584 66.4047C90.5523 66.1295 90.8516 65.9825 91.1269 66.0763C91.4023 66.17 91.5495 66.469 91.4556 66.7442C91.3618 67.0193 91.0625 67.1663 90.7871 67.0726Z" fill="#512E84"/>
<path d="M91.8645 63.5455C91.5815 63.4784 91.4065 63.1947 91.4738 62.9119C91.541 62.6291 91.825 62.4543 92.108 62.5215C92.3911 62.5887 92.566 62.8724 92.4987 63.1551C92.4315 63.4379 92.1476 63.6127 91.8645 63.5455Z" fill="#512E84"/>
<path d="M92.6029 59.9323C92.3148 59.8923 92.1136 59.6265 92.1537 59.3387C92.1937 59.0508 92.4597 58.8498 92.7479 58.8898C93.036 58.9298 93.2372 59.1956 93.1971 59.4835C93.1571 59.7714 92.8911 59.9723 92.6029 59.9323Z" fill="#512E84"/>
<path d="M92.9956 56.2658C92.705 56.2533 92.4795 56.0078 92.4919 55.7174C92.5044 55.427 92.7501 55.2017 93.0408 55.2142C93.3314 55.2266 93.5569 55.4721 93.5445 55.7625C93.532 56.0529 93.2863 56.2782 92.9956 56.2658Z" fill="#512E84"/>
<path d="M93.0391 52.579C92.7486 52.5942 92.5007 52.3712 92.4855 52.0809C92.4703 51.7907 92.6935 51.5431 92.984 51.5278C93.2745 51.5126 93.5223 51.7356 93.5376 52.0259C93.5528 52.3161 93.3296 52.5637 93.0391 52.579Z" fill="#512E84"/>
<path d="M92.7329 48.9053C92.4452 48.948 92.1772 48.7496 92.1345 48.4621C92.0917 48.1746 92.2903 47.9069 92.578 47.8642C92.8658 47.8215 93.1337 48.0199 93.1765 48.3074C93.2193 48.5949 93.0207 48.8626 92.7329 48.9053Z" fill="#512E84"/>
<path d="M92.0799 45.2781C91.7975 45.348 91.5119 45.1759 91.442 44.8938C91.3721 44.6116 91.5443 44.3263 91.8267 44.2564C92.1091 44.1865 92.3947 44.3586 92.4646 44.6407C92.5345 44.9229 92.3623 45.2082 92.0799 45.2781Z" fill="#512E84"/>
<path d="M91.086 41.7302C90.8115 41.8265 90.5108 41.6824 90.4144 41.4081C90.3179 41.1339 90.4622 40.8335 90.7367 40.7371C91.0111 40.6408 91.3118 40.7849 91.4083 41.0592C91.5047 41.3334 91.3604 41.6338 91.086 41.7302Z" fill="#512E84"/>
<path d="M89.7601 38.2936C89.496 38.4156 89.183 38.3007 89.0609 38.0369C88.9388 37.7731 89.0538 37.4603 89.3179 37.3383C89.5819 37.2163 89.895 37.3313 90.0171 37.5951C90.1392 37.8589 90.0241 38.1716 89.7601 38.2936Z" fill="#512E84"/>
<path d="M88.1142 34.9997C87.863 35.1462 87.5404 35.0615 87.3938 34.8105C87.2471 34.5594 87.3319 34.2372 87.5831 34.0906C87.8344 33.9441 88.1569 34.0288 88.3036 34.2798C88.4503 34.5309 88.3655 34.8531 88.1142 34.9997Z" fill="#512E84"/>
<path d="M86.1527 31.8758C85.9165 32.0455 85.5874 31.9918 85.4175 31.7559C85.2476 31.5199 85.3014 31.191 85.5375 31.0213C85.7737 30.8516 86.1029 30.9053 86.2727 31.1412C86.4426 31.3772 86.3889 31.7061 86.1527 31.8758Z" fill="#512E84"/>
<path d="M83.8932 28.9503C83.6743 29.1417 83.3415 29.1195 83.1499 28.9008C82.9584 28.682 82.9806 28.3495 83.1995 28.1581C83.4185 27.9668 83.7513 27.9889 83.9428 28.2077C84.1344 28.4265 84.1122 28.7589 83.8932 28.9503Z" fill="#512E84"/>
<path d="M81.3669 26.252C81.1672 26.4633 80.8338 26.4728 80.6223 26.2732C80.4108 26.0737 80.4013 25.7406 80.601 25.5293C80.8008 25.318 81.1342 25.3084 81.3457 25.508C81.5572 25.7076 81.5667 26.0407 81.3669 26.252Z" fill="#512E84"/>
<path d="M78.5968 23.8052C78.418 24.0346 78.0871 24.0757 77.8575 23.8971C77.628 23.7185 77.5868 23.3879 77.7656 23.1585C77.9443 22.9292 78.2753 22.8881 78.5048 23.0667C78.7343 23.2452 78.7755 23.5759 78.5968 23.8052Z" fill="#512E84"/>
<path d="M75.6077 21.6323C75.4516 21.8775 75.1261 21.9499 74.8806 21.7939C74.6351 21.6379 74.5626 21.3127 74.7188 21.0674C74.8749 20.8222 75.2004 20.7498 75.4459 20.9058C75.6914 21.0617 75.7638 21.387 75.6077 21.6323Z" fill="#512E84"/>
<path d="M72.4269 19.7527C72.2948 20.0116 71.9777 20.1146 71.7184 19.9827C71.4592 19.8507 71.3562 19.5338 71.4882 19.2748C71.6203 19.0159 71.9375 18.9129 72.1967 19.0448C72.4559 19.1768 72.559 19.4937 72.4269 19.7527Z" fill="#512E84"/>
<path d="M69.0832 18.1836C68.9763 18.4539 68.6704 18.5865 68.3998 18.4798C68.1292 18.373 67.9964 18.0674 68.1033 17.797C68.2101 17.5267 68.5161 17.394 68.7867 17.5008C69.0572 17.6075 69.19 17.9132 69.0832 18.1836Z" fill="#512E84"/>
<path d="M65.6067 16.9391C65.5261 17.2184 65.2341 17.3794 64.9546 17.2989C64.6751 17.2183 64.5138 16.9266 64.5945 16.6474C64.6751 16.3681 64.9671 16.207 65.2466 16.2876C65.5261 16.3681 65.6873 16.6598 65.6067 16.9391Z" fill="#512E84"/>
<path d="M62.029 16.0305C61.9753 16.3162 61.7 16.5043 61.4141 16.4506C61.1282 16.397 60.9399 16.1219 60.9936 15.8363C61.0473 15.5506 61.3227 15.3625 61.6086 15.4162C61.8945 15.4698 62.0827 15.7449 62.029 16.0305Z" fill="#512E84"/>
<path d="M58.3826 15.4662C58.3563 15.7556 58.1001 15.969 57.8104 15.9428C57.5207 15.9165 57.3071 15.6606 57.3334 15.3711C57.3597 15.0816 57.6158 14.8683 57.9056 14.8945C58.1953 14.9208 58.4089 15.1767 58.3826 15.4662Z" fill="#512E84"/>
<path d="M54.7004 15.2511C54.7017 15.5417 54.467 15.7785 54.1761 15.7798C53.8852 15.7812 53.6482 15.5467 53.6469 15.2561C53.6455 14.9654 53.8802 14.7287 54.1711 14.7273C54.462 14.7259 54.699 14.9604 54.7004 15.2511Z" fill="#512E84"/>
<path d="M51.0157 15.3872C51.0447 15.6764 50.8336 15.9343 50.5441 15.9633C50.2547 15.9923 49.9965 15.7814 49.9675 15.4922C49.9384 15.203 50.1495 14.945 50.439 14.916C50.7285 14.887 50.9867 15.098 51.0157 15.3872Z" fill="#512E84"/>
<path d="M47.362 15.8732C47.4184 16.1584 47.2328 16.4352 46.9474 16.4916C46.662 16.5479 46.3849 16.3625 46.3285 16.0773C46.2721 15.7922 46.4577 15.5154 46.7431 15.459C47.0285 15.4026 47.3056 15.5881 47.362 15.8732Z" fill="#512E84"/>
<path d="M43.7723 16.7049C43.8556 16.9834 43.6971 17.2766 43.4184 17.3598C43.1397 17.443 42.8462 17.2847 42.7629 17.0062C42.6796 16.7278 42.838 16.4345 43.1168 16.3513C43.3955 16.2681 43.689 16.4264 43.7723 16.7049Z" fill="#512E84"/>
<path d="M40.2791 17.8746C40.3885 18.1439 40.2587 18.4509 39.9892 18.5602C39.7196 18.6695 39.4124 18.5398 39.303 18.2704C39.1936 18.0011 39.3234 17.6942 39.593 17.5849C39.8625 17.4756 40.1697 17.6053 40.2791 17.8746Z" fill="#512E84"/>
<path d="M36.9142 19.3718C37.0487 19.6295 36.9487 19.9473 36.6907 20.0818C36.4328 20.2162 36.1146 20.1162 35.9801 19.8585C35.8456 19.6008 35.9456 19.2829 36.2035 19.1485C36.4615 19.0141 36.7796 19.1141 36.9142 19.3718Z" fill="#512E84"/>
<path d="M33.7078 21.1828C33.8663 21.4266 33.7969 21.7525 33.5529 21.9108C33.309 22.0691 32.9827 21.9999 32.8243 21.7561C32.6658 21.5123 32.7352 21.1864 32.9792 21.0281C33.2232 20.8698 33.5494 20.9391 33.7078 21.1828Z" fill="#512E84"/>
<defs>
<linearGradient id="paint0_linear_4_3128" x1="54" y1="0" x2="54" y2="108" gradientUnits="userSpaceOnUse">
<stop stop-color="#FFDFAE"/>
<stop offset="0.351643" stop-color="#F4B453"/>
<stop offset="1" stop-color="#7E4321"/>
</linearGradient>
<linearGradient id="paint1_linear_4_3128" x1="54" y1="9.27271" x2="54" y2="98.1818" gradientUnits="userSpaceOnUse">
<stop stop-color="#FFDFAE"/>
<stop offset="0.351643" stop-color="#F4B453"/>
<stop offset="1" stop-color="#7E4321"/>
</linearGradient>
</defs>
</svg>
