<svg width="140" height="67" viewBox="0 0 140 67" fill="none" xmlns="http://www.w3.org/2000/svg">
<path d="M140 38.0703L140 63.5789C140 65.4453 138.483 66.9584 136.611 66.9584L111.53 66.9584C109.659 66.9584 108.142 65.4453 108.142 63.5789L108.142 55.9476C108.142 54.823 108.702 53.7721 109.638 53.1441L135.584 35.7257C137.466 34.4619 140 35.8072 140 38.0703Z" fill="white"/>
<path d="M129.701 3.80683C129.701 1.70438 127.992 1.11894e-05 125.884 1.10051e-05L125.481 1.09699e-05C124.734 1.09046e-05 124.003 0.218813 123.379 0.629278L59.7875 42.4725C58.7168 43.177 58.0726 44.3708 58.0726 45.65L58.0726 63.1932C58.0726 65.2956 59.7815 67 61.8896 67L71.0906 67C71.8359 67 72.5648 66.7824 73.1876 66.374L127.981 30.4443C129.055 29.7403 129.701 28.5449 129.701 27.2635L129.701 3.80683Z" fill="white"/>
<path d="M71.6285 3.80682C71.6285 1.70438 69.9195 8.30506e-06 67.8115 8.12076e-06L67.4087 8.08556e-06C66.6614 8.02022e-06 65.9305 0.21881 65.3067 0.629275L1.71497 42.4725C0.64428 43.177 -3.87901e-06 44.3708 -3.99085e-06 45.65L-5.52452e-06 63.1932C-5.70832e-06 65.2956 1.70894 67 3.81703 67L13.018 67C13.7633 67 14.4923 66.7824 15.115 66.374L69.9085 30.4443C70.9821 29.7403 71.6285 28.5449 71.6285 27.2635L71.6285 3.80682Z" fill="white"/>
</svg>
